<?xml version="1.0" encoding="UTF-8"?>
<!DOCTYPE svg PUBLIC "-//W3C//DTD SVG 1.1//EN" "http://www.w3.org/Graphics/SVG/1.1/DTD/svg11.dtd">
<!-- Creator: CorelDRAW Home & Student X7 -->
<svg xmlns="http://www.w3.org/2000/svg" xml:space="preserve" width="100%" height="100%" version="1.1" style="shape-rendering:geometricPrecision; text-rendering:geometricPrecision; image-rendering:optimizeQuality; fill-rule:evenodd; clip-rule:evenodd"
viewBox="0 0 14731 15131"
 xmlns:xlink="http://www.w3.org/1999/xlink">
 <defs>
  <style type="text/css">
    .str0 {stroke:black;stroke-width:17.64}
    .fil0 {fill:none}
    .fil1 {fill:#E6E6E6}
    .fil2 {fill:black;fill-rule:nonzero}
  </style>
 </defs>
  <circle class="fil0 str0" cx="7366" cy="7910" r="6833"/>
  <circle class="fil0 str0" cx="7366" cy="7910" r="5442"/>
  <line class="fil0 str0" x1="532" y1="7910" x2="14199" y2= "7910" />
  <line class="fil0 str0" x1="7366" y1="1076" x2="7366" y2= "14743" />
  <circle class="fil1 str0" cx="7366" cy="7910" r="380"/>
  <circle class="fil1 str0" cx="7366" cy="9261" r="380"/>
  <circle class="fil1 str0" cx="8663" cy="9287" r="380"/>
  <circle class="fil1 str0" cx="9958" cy="9382" r="380"/>
  <circle class="fil1 str0" cx="11271" cy="9434" r="380"/>
  <circle class="fil1 str0" cx="12531" cy="9615" r="380"/>
  <circle class="fil1 str0" cx="13861" cy="10038" r="380"/>
  <circle class="fil1 str0" cx="7366" cy="10647" r="380"/>
  <circle class="fil1 str0" cx="8464" cy="10677" r="380"/>
  <circle class="fil1 str0" cx="9639" cy="10755" r="380"/>
  <circle class="fil1 str0" cx="10753" cy="10884" r="380"/>
  <circle class="fil1 str0" cx="11780" cy="11135" r="380"/>
  <circle class="fil1 str0" cx="7366" cy="11981" r="380"/>
  <circle class="fil1 str0" cx="9043" cy="13121" r="380"/>
  <circle class="fil1 str0" cx="9012" cy="12093" r="380"/>
  <circle class="fil1 str0" cx="10580" cy="12344" r="380"/>
  <circle class="fil1 str0" cx="7366" cy="13384" r="380"/>
  <circle class="fil1 str0" cx="7366" cy="6537" r="380"/>
  <circle class="fil1 str0" cx="8663" cy="6567" r="380"/>
  <circle class="fil1 str0" cx="9950" cy="6481" r="380"/>
  <circle class="fil1 str0" cx="11253" cy="6412" r="380"/>
  <circle class="fil1 str0" cx="12531" cy="6231" r="380"/>
  <circle class="fil1 str0" cx="13870" cy="5799" r="380"/>
  <circle class="fil1 str0" cx="7366" cy="5164" r="380"/>
  <circle class="fil1 str0" cx="8482" cy="5177" r="380"/>
  <circle class="fil1 str0" cx="9647" cy="5091" r="380"/>
  <circle class="fil1 str0" cx="10761" cy="4961" r="380"/>
  <circle class="fil1 str0" cx="11780" cy="4711" r="380"/>
  <circle class="fil1 str0" cx="7366" cy="3852" r="380"/>
  <circle class="fil1 str0" cx="9043" cy="3813" r="380"/>
  <circle class="fil1 str0" cx="10615" cy="3544" r="380"/>
  <circle class="fil1 str0" cx="9034" cy="2734" r="380"/>
  <circle class="fil1 str0" cx="8736" cy="7910" r="380"/>
  <circle class="fil1 str0" cx="10107" cy="7910" r="380"/>
  <circle class="fil1 str0" cx="11477" cy="7910" r="380"/>
  <circle class="fil1 str0" cx="12808" cy="7910" r="380"/>
  <circle class="fil1 str0" cx="6068" cy="9287" r="380"/>
  <circle class="fil1 str0" cx="4773" cy="9382" r="380"/>
  <circle class="fil1 str0" cx="3461" cy="9434" r="380"/>
  <circle class="fil1 str0" cx="2200" cy="9615" r="380"/>
  <circle class="fil1 str0" cx="870" cy="10038" r="380"/>
  <circle class="fil1 str0" cx="6267" cy="10677" r="380"/>
  <circle class="fil1 str0" cx="5092" cy="10755" r="380"/>
  <circle class="fil1 str0" cx="3979" cy="10884" r="380"/>
  <circle class="fil1 str0" cx="2951" cy="11135" r="380"/>
  <circle class="fil1 str0" cx="5688" cy="13121" r="380"/>
  <circle class="fil1 str0" cx="5720" cy="12093" r="380"/>
  <circle class="fil1 str0" cx="4151" cy="12344" r="380"/>
  <circle class="fil1 str0" cx="6068" cy="6567" r="380"/>
  <circle class="fil1 str0" cx="4782" cy="6481" r="380"/>
  <circle class="fil1 str0" cx="3478" cy="6412" r="380"/>
  <circle class="fil1 str0" cx="2200" cy="6231" r="380"/>
  <circle class="fil1 str0" cx="862" cy="5799" r="380"/>
  <circle class="fil1 str0" cx="6249" cy="5177" r="380"/>
  <circle class="fil1 str0" cx="5084" cy="5091" r="380"/>
  <circle class="fil1 str0" cx="3970" cy="4961" r="380"/>
  <circle class="fil1 str0" cx="2951" cy="4711" r="380"/>
  <circle class="fil1 str0" cx="5688" cy="3813" r="380"/>
  <circle class="fil1 str0" cx="4116" cy="3544" r="380"/>
  <circle class="fil1 str0" cx="5697" cy="2734" r="380"/>
  <circle class="fil1 str0" cx="5995" cy="7910" r="380"/>
  <circle class="fil1 str0" cx="4624" cy="7910" r="380"/>
  <circle class="fil1 str0" cx="3254" cy="7910" r="380"/>
  <circle class="fil1 str0" cx="1924" cy="7910" r="380"/>
  <path class="fil2" d="M8660 8019c7,0 15,-1 22,-3 8,-2 14,-5 20,-10 6,-4 11,-10 14,-17 3,-7 5,-15 5,-22l-28 0c0,5 -1,10 -5,15 -3,4 -7,7 -12,9 -6,2 -11,3 -16,3 -5,0 -9,-1 -14,-2 -4,-1 -8,-4 -11,-7 -3,-3 -6,-7 -7,-12 -1,-4 -2,-9 -2,-13l0 -95c0,-4 1,-9 2,-13 1,-4 4,-8 7,-12 3,-3 7,-5 11,-6 5,-2 9,-2 14,-2 5,0 10,0 16,2 5,2 9,5 12,10 4,4 5,9 5,15l28 0c0,-8 -2,-15 -5,-22 -3,-7 -8,-13 -14,-18 -6,-5 -12,-8 -20,-10 -7,-1 -15,-2 -22,-2 -7,0 -13,0 -19,2 -7,1 -13,3 -18,7 -6,3 -10,8 -14,13 -4,5 -7,11 -8,17 -2,7 -3,13 -3,19l0 95c0,6 1,13 3,19 1,6 4,12 8,18 4,5 8,9 14,13 5,3 11,5 18,7 6,1 12,2 19,2z"/>
  <path class="fil2" d="M8763 8016l120 0 0 -24 -91 0c2,-9 5,-18 9,-26 5,-8 11,-15 18,-21 6,-6 14,-11 22,-16 7,-4 15,-10 22,-16 7,-6 12,-13 15,-21 4,-9 6,-18 6,-27 0,-8 -1,-16 -4,-23 -2,-8 -6,-15 -12,-20 -6,-6 -13,-10 -21,-12 -8,-2 -16,-3 -24,-3 -7,0 -15,1 -22,2 -7,2 -14,5 -20,10 -6,5 -11,11 -14,18 -3,7 -4,14 -4,22l27 0c0,-6 2,-11 5,-15 3,-5 7,-8 13,-10 5,-2 10,-2 15,-2 5,0 9,0 13,2 5,1 9,3 12,6 3,4 5,8 6,12 2,4 2,9 2,13 0,9 -2,18 -8,25 -5,8 -11,14 -19,18 -8,5 -16,10 -23,15 -8,5 -14,11 -20,18 -6,7 -11,14 -14,22 -4,9 -6,17 -7,26 -1,9 -2,18 -2,27l0 0z"/>
  <path class="fil2" d="M10033 8021c8,0 15,-1 23,-3 7,-2 14,-5 20,-10 6,-5 10,-10 14,-17 3,-8 4,-15 4,-22l-27 0c0,5 -2,10 -5,14 -3,5 -8,8 -13,10 -5,2 -11,3 -16,3 -4,0 -9,-1 -13,-2 -5,-2 -8,-4 -12,-7 -3,-3 -5,-7 -7,-12 -1,-4 -2,-9 -2,-13l0 -95c0,-4 1,-9 2,-13 2,-4 4,-8 7,-12 4,-3 7,-5 12,-7 4,-1 9,-2 13,-2 5,0 11,1 16,3 5,2 10,5 13,9 3,5 5,10 5,16l27 0c0,-8 -1,-15 -4,-22 -4,-7 -8,-13 -14,-18 -6,-5 -13,-8 -20,-10 -8,-1 -15,-2 -23,-2 -6,0 -13,0 -19,2 -6,1 -12,3 -18,7 -5,3 -10,7 -14,13 -4,5 -7,11 -8,17 -2,7 -2,13 -2,19l0 95c0,6 0,13 2,19 1,6 4,12 8,17 4,6 9,10 14,14 6,3 12,5 18,7 6,1 13,2 19,2z"/>
  <path class="fil2" d="M10165 7935l43 -80 0 80 -43 0zm43 83l27 0 0 -58 21 0 0 -25 -21 0 0 -124 -34 0 -67 124 0 25 74 0 0 58z"/>
  <path class="fil2" d="M11400 8021c8,0 15,-1 22,-3 8,-2 15,-5 21,-10 6,-5 10,-10 13,-17 4,-8 5,-15 5,-22l-28 0c0,5 -1,10 -4,14 -4,5 -8,8 -13,10 -5,2 -11,3 -16,3 -4,0 -9,-1 -13,-2 -5,-2 -9,-4 -12,-7 -3,-3 -5,-7 -7,-12 -1,-4 -2,-9 -2,-13l0 -95c0,-4 1,-9 2,-13 2,-4 4,-8 7,-12 3,-3 7,-5 12,-7 4,-1 9,-2 13,-2 5,0 11,1 16,3 5,2 9,5 13,9 3,5 4,10 4,16l28 0c0,-8 -1,-15 -5,-22 -3,-7 -7,-13 -13,-18 -6,-5 -13,-8 -21,-10 -7,-1 -14,-2 -22,-2 -6,0 -13,0 -19,2 -6,1 -12,3 -18,7 -5,3 -10,7 -14,13 -4,5 -7,11 -8,17 -2,7 -2,13 -2,19l0 95c0,6 0,13 2,19 1,6 4,12 8,17 4,6 9,10 14,14 6,3 12,5 18,7 6,1 13,2 19,2z"/>
  <path class="fil2" d="M11563 8021c7,0 14,-1 21,-3 6,-1 13,-4 18,-8 6,-5 10,-10 14,-16 4,-5 6,-12 7,-19 2,-6 2,-13 2,-20 0,-9 -1,-17 -3,-25 -2,-9 -6,-16 -12,-22 -6,-7 -13,-12 -21,-14 -8,-3 -17,-4 -25,-4 -7,0 -14,0 -19,2 3,-5 7,-11 11,-18l37 -63 -31 0 -30 50c-5,9 -10,18 -15,27 -5,9 -9,19 -12,29 -2,10 -4,20 -4,30 0,8 1,15 2,22 1,7 4,14 7,21 3,6 8,12 13,17 6,5 12,8 19,10 7,3 14,4 21,4zm0 -25l-1 0 -1 -1c-5,0 -10,-1 -14,-3 -5,-2 -8,-5 -11,-9 -3,-4 -5,-9 -6,-14 -1,-4 -1,-9 -1,-14 0,-5 0,-10 2,-15 1,-5 3,-10 6,-14 3,-4 7,-7 12,-9 5,-2 10,-3 15,-3 4,0 9,1 14,3 5,2 9,5 12,9 3,4 5,9 6,14 1,5 2,10 2,15 0,5 -1,10 -2,15 -1,5 -3,9 -6,14 -3,4 -7,7 -12,9 -5,2 -10,3 -15,3z"/>
  <polygon class="fil2" points="12722,8016 12750,8016 12750,7834 12799,7834 12799,7809 12673,7809 12673,7834 12722,7834 "/>
  <path class="fil2" d="M12899 8019c7,0 15,-1 22,-3 8,-2 14,-5 21,-9 6,-4 11,-10 14,-17 3,-7 5,-15 5,-22 0,-22 -13,-41 -38,-57 22,-15 33,-33 33,-53 0,-8 -1,-15 -4,-22 -3,-6 -7,-12 -13,-17 -6,-5 -12,-8 -19,-10 -7,-1 -14,-2 -21,-2 -7,0 -15,1 -22,2 -7,2 -13,5 -19,10 -5,5 -9,11 -12,17 -3,7 -4,14 -4,22 0,20 11,38 33,53 -26,16 -38,35 -38,57 0,7 1,15 5,22 3,7 8,13 14,17 6,4 13,7 20,9 8,2 15,3 23,3zm0 -25c-6,0 -11,-1 -16,-2 -6,-2 -10,-5 -14,-9 -3,-5 -5,-10 -5,-15 0,-7 2,-13 6,-18 3,-6 8,-10 13,-14 5,-4 10,-8 16,-11 5,3 10,7 16,11 5,4 9,8 13,14 3,5 5,11 5,18 0,5 -2,10 -5,15 -4,4 -8,7 -13,9 -5,1 -11,2 -16,2zm0 -97c-20,-12 -30,-25 -30,-39 0,-6 2,-10 4,-15 3,-4 7,-7 11,-9 5,-2 10,-2 15,-2 5,0 9,0 14,2 5,2 9,5 11,9 3,5 4,9 4,15 0,14 -10,27 -29,39z"/>
  <path class="fil2" d="M5920 8021c8,0 15,-1 23,-3 7,-2 14,-5 20,-10 6,-5 10,-10 14,-17 3,-8 4,-15 4,-22l-27 0c0,5 -2,10 -5,14 -3,5 -8,8 -13,10 -5,2 -10,3 -16,3 -4,0 -9,-1 -13,-2 -5,-2 -8,-4 -12,-7 -3,-3 -5,-7 -7,-12 -1,-4 -2,-9 -2,-13l0 -95c0,-4 1,-9 2,-13 2,-4 4,-8 7,-12 4,-3 7,-5 12,-7 4,-1 9,-2 13,-2 6,0 11,1 16,3 5,2 10,5 13,9 3,5 5,10 5,16l27 0c0,-8 -1,-15 -4,-22 -4,-7 -8,-13 -14,-18 -6,-5 -13,-8 -20,-10 -8,-1 -15,-2 -23,-2 -6,0 -13,0 -19,2 -6,1 -12,3 -18,7 -5,3 -10,7 -14,13 -4,5 -7,11 -8,17 -2,7 -2,13 -2,19l0 95c0,6 0,13 2,19 1,6 4,12 8,17 4,6 9,10 14,14 6,3 12,5 18,7 6,1 13,2 19,2z"/>
  <polygon class="fil2" points="6078,8018 6106,8018 6106,7811 6078,7811 6028,7847 6045,7867 6078,7843 "/>
  <path class="fil2" d="M4554 8021c7,0 15,-1 22,-3 7,-2 14,-5 20,-10 6,-5 11,-10 14,-17 3,-8 5,-15 5,-22l-28 0c0,5 -2,10 -5,14 -3,5 -7,8 -13,10 -5,2 -10,3 -15,3 -5,0 -9,-1 -14,-2 -4,-2 -8,-4 -11,-7 -4,-3 -6,-7 -7,-12 -2,-4 -2,-9 -2,-13l0 -95c0,-4 0,-9 2,-13 1,-4 3,-8 7,-12 3,-3 7,-5 11,-7 5,-1 9,-2 14,-2 5,0 10,1 15,3 6,2 10,5 13,9 3,5 5,10 5,16l28 0c0,-8 -2,-15 -5,-22 -3,-7 -8,-13 -14,-18 -6,-5 -13,-8 -20,-10 -7,-1 -15,-2 -22,-2 -7,0 -13,0 -20,2 -6,1 -12,3 -18,7 -5,3 -10,7 -14,13 -4,5 -6,11 -8,17 -1,7 -2,13 -2,19l0 95c0,6 1,13 2,19 2,6 4,12 8,17 4,6 9,10 14,14 6,3 12,5 18,7 7,1 13,2 20,2z"/>
  <path class="fil2" d="M4717 8021c8,0 16,-1 24,-4 8,-2 15,-5 21,-11 7,-5 11,-11 14,-19 3,-7 5,-15 5,-23 0,-8 -1,-15 -4,-22 -3,-7 -8,-14 -13,-19 -6,-5 -12,-9 -19,-12 6,-2 12,-6 17,-11 4,-5 8,-11 11,-18 2,-6 4,-13 4,-19 0,-8 -2,-15 -5,-22 -3,-8 -7,-14 -13,-19 -5,-5 -12,-8 -19,-10 -8,-2 -15,-3 -22,-3 -8,0 -15,1 -22,2 -8,2 -14,5 -20,10 -6,5 -10,11 -13,17 -3,7 -4,14 -4,22l0 0 27 0 0 0c0,-5 2,-10 5,-15 2,-4 6,-7 11,-9 5,-2 10,-3 16,-3 5,0 10,2 15,4 5,2 9,5 12,10 3,5 4,10 4,16 0,5 -1,11 -4,16 -3,5 -6,9 -11,13 -5,3 -10,5 -15,6 -6,1 -12,1 -17,1l0 25c6,0 12,1 18,1 6,1 12,4 17,7 5,4 9,8 12,14 3,5 4,11 4,17 0,6 -1,12 -4,18 -3,5 -8,9 -14,11 -6,3 -12,4 -18,4 -5,0 -11,-1 -16,-3 -6,-1 -10,-5 -14,-10 -4,-4 -5,-10 -5,-15l-28 0c0,8 2,15 5,22 3,7 8,13 15,18 6,5 13,8 20,10 8,2 16,3 23,3z"/>
  <path class="fil2" d="M3180 8021c7,0 15,-1 22,-3 7,-2 14,-5 20,-10 6,-5 11,-10 14,-17 3,-8 5,-15 5,-22l-28 0c0,5 -1,10 -5,14 -3,5 -7,8 -12,10 -6,2 -11,3 -16,3 -5,0 -9,-1 -14,-2 -4,-2 -8,-4 -11,-7 -3,-3 -6,-7 -7,-12 -1,-4 -2,-9 -2,-13l0 -95c0,-4 1,-9 2,-13 1,-4 4,-8 7,-12 3,-3 7,-5 11,-7 5,-1 9,-2 14,-2 5,0 10,1 16,3 5,2 9,5 12,9 4,5 5,10 5,16l28 0c0,-8 -2,-15 -5,-22 -3,-7 -8,-13 -14,-18 -6,-5 -13,-8 -20,-10 -7,-1 -15,-2 -22,-2 -7,0 -13,0 -19,2 -7,1 -13,3 -18,7 -6,3 -11,7 -14,13 -4,5 -7,11 -8,17 -2,7 -3,13 -3,19l0 95c0,6 1,13 3,19 1,6 4,12 8,17 3,6 8,10 14,14 5,3 11,5 18,7 6,1 12,2 19,2z"/>
  <path class="fil2" d="M3343 8021c7,0 14,-1 21,-3 7,-2 13,-5 19,-10 5,-4 10,-9 13,-16 3,-6 6,-12 7,-19 1,-7 2,-14 2,-21 0,0 0,0 0,0 0,0 0,0 0,0 0,-7 -1,-14 -2,-21 -1,-7 -3,-13 -7,-19 -3,-7 -7,-12 -13,-16 -5,-5 -11,-8 -18,-10 -7,-2 -14,-3 -21,-3 -12,0 -22,2 -31,7l0 -54 84 0 0 -25 -111 0 0 123 27 0c1,-5 2,-9 5,-14 3,-4 7,-7 12,-9 4,-2 9,-3 14,-3 6,0 11,1 15,4 5,2 9,6 11,10 3,5 5,9 6,14 1,6 1,11 1,16 0,0 0,0 0,0 0,0 0,0 0,0 0,5 0,10 -1,15 -1,6 -3,10 -6,15 -3,4 -7,8 -12,10 -4,3 -9,4 -15,4 -5,0 -11,-1 -16,-4 -5,-2 -9,-6 -12,-11 -3,-5 -5,-10 -5,-15l-27 0c0,7 1,14 4,22 3,7 8,13 14,18 5,6 12,9 20,11 7,3 15,4 22,4z"/>
  <polygon class="fil2" points="1831,8018 1859,8018 1859,7836 1908,7836 1908,7811 1782,7811 1782,7836 1831,7836 "/>
  <polygon class="fil2" points="1966,8018 1996,8018 2067,7836 2067,7811 1948,7811 1948,7836 2037,7836 "/>
  <polygon class="fil2" points="2026,9721 2054,9721 2054,9538 2103,9538 2103,9513 1977,9513 1977,9538 2026,9538 "/>
  <path class="fil2" d="M2148 9721l28 0 0 -82 30 0c7,0 13,-1 20,-3 6,-1 12,-4 18,-8 5,-4 10,-8 13,-14 4,-6 6,-12 8,-18 1,-7 2,-14 2,-20 0,-7 -1,-13 -2,-20 -2,-6 -4,-12 -8,-18 -3,-6 -8,-10 -13,-14 -6,-4 -12,-7 -18,-8 -7,-2 -13,-3 -20,-3l-58 0 0 208zm28 -107l0 -76 30 0c5,0 9,1 14,3 4,2 8,4 11,8 3,4 5,8 6,13 1,5 2,9 2,14 0,5 -1,10 -2,14 -1,5 -3,9 -6,13 -3,3 -7,6 -11,8 -5,2 -9,3 -14,3l-30 0z"/>
  <polygon class="fil2" points="2324,9721 2354,9721 2425,9538 2425,9513 2305,9513 2305,9538 2395,9538 "/>
  <path class="fil2" d="M3306 9545c7,0 15,-1 22,-3 7,-2 14,-5 20,-10 6,-4 11,-10 14,-17 3,-7 5,-15 5,-22l-28 0c0,5 -2,10 -5,15 -3,4 -7,8 -12,9 -6,2 -11,3 -16,3 -5,0 -9,-1 -14,-2 -4,-1 -8,-4 -11,-7 -3,-3 -6,-7 -7,-11 -1,-5 -2,-9 -2,-14l0 -94c0,-5 1,-9 2,-14 1,-4 4,-8 7,-11 3,-4 7,-6 11,-7 5,-2 9,-2 14,-2 5,0 10,1 16,2 5,2 9,5 12,10 3,4 5,9 5,15l28 0c0,-8 -2,-15 -5,-22 -3,-7 -8,-13 -14,-18 -6,-4 -13,-8 -20,-9 -7,-2 -15,-3 -22,-3 -7,0 -13,1 -20,2 -6,1 -12,4 -17,7 -6,3 -11,8 -14,13 -4,5 -7,11 -8,18 -2,6 -3,12 -3,19l0 94c0,7 1,13 3,19 1,7 4,12 8,18 3,5 8,9 14,13 5,3 11,6 17,7 7,1 13,2 20,2z"/>
  <path class="fil2" d="M3414 9543l28 0 0 -83 31 0c6,0 13,-1 19,-2 7,-2 13,-4 18,-8 6,-4 10,-9 14,-14 3,-6 6,-12 7,-19 2,-6 2,-13 2,-19 0,-7 0,-14 -2,-20 -1,-7 -4,-13 -7,-18 -4,-6 -8,-11 -14,-15 -5,-3 -11,-6 -18,-8 -6,-1 -13,-2 -19,-2l-59 0 0 208zm28 -108l0 -75 31 0c4,0 9,1 13,3 5,1 9,4 12,8 3,4 5,8 6,13 1,4 2,9 2,14 0,4 -1,9 -2,14 -1,4 -3,9 -6,12 -3,4 -7,7 -12,9 -4,1 -9,2 -13,2l-31 0z"/>
  <path class="fil2" d="M3632 9545c7,0 14,-1 20,-3 7,-2 14,-5 19,-9 6,-5 10,-10 14,-16 3,-7 5,-13 7,-20 1,-7 2,-14 2,-21 0,0 0,0 0,0 0,0 0,0 0,0 0,-7 -1,-14 -2,-20 -2,-7 -4,-14 -7,-20 -4,-6 -8,-12 -13,-16 -6,-5 -12,-8 -19,-10 -6,-2 -13,-3 -20,-3 -12,0 -23,3 -31,7l0 -54 83 0 0 -25 -111 0 0 124 28 0c0,-5 2,-10 4,-14 3,-5 7,-8 12,-10 5,-2 10,-2 15,-2 5,0 10,1 15,3 5,2 8,6 11,10 3,5 5,10 5,15 1,5 2,10 2,15 0,0 0,0 0,0 0,0 0,0 0,0 0,5 -1,11 -2,16 -1,5 -3,10 -5,14 -3,5 -7,8 -12,11 -5,2 -10,3 -15,3 -6,0 -11,-1 -16,-3 -6,-3 -10,-6 -13,-11 -3,-5 -4,-11 -4,-16l-28 0c0,7 2,15 5,22 3,7 7,14 13,19 6,5 13,9 20,11 7,2 15,3 23,3z"/>
  <path class="fil2" d="M4618 9493c8,0 15,-1 23,-3 7,-1 14,-5 20,-9 6,-5 10,-11 14,-18 3,-7 4,-14 4,-22l-27 0c0,5 -2,10 -5,15 -3,5 -8,8 -13,10 -5,1 -11,2 -16,2 -4,0 -9,0 -13,-2 -5,-1 -8,-3 -12,-7 -3,-3 -5,-7 -7,-11 -1,-5 -2,-9 -2,-14l0 -94c0,-5 1,-9 2,-14 2,-4 4,-8 7,-11 4,-3 7,-6 12,-7 4,-1 9,-2 13,-2 5,0 11,1 16,3 5,1 10,4 13,9 3,5 5,10 5,15l27 0c0,-7 -1,-15 -4,-22 -4,-7 -8,-13 -14,-17 -6,-5 -13,-8 -20,-10 -8,-2 -15,-3 -23,-3 -6,0 -13,1 -19,2 -6,1 -12,4 -18,7 -5,4 -10,8 -14,13 -4,6 -7,11 -8,18 -2,6 -2,12 -2,19l0 94c0,7 0,13 2,19 1,7 4,13 8,18 4,5 9,10 14,13 6,3 12,6 18,7 6,1 13,2 19,2z"/>
  <path class="fil2" d="M4727 9491l28 0 0 -83 30 0c7,0 13,0 20,-2 6,-1 12,-4 18,-8 5,-4 10,-9 13,-14 4,-6 6,-12 8,-18 1,-7 2,-14 2,-20 0,-7 -1,-13 -2,-20 -2,-6 -4,-12 -8,-18 -3,-6 -8,-10 -13,-14 -6,-4 -12,-7 -18,-8 -7,-2 -13,-3 -20,-3l-58 0 0 208zm28 -107l0 -76 30 0c5,0 9,1 14,3 4,1 8,4 11,8 3,4 5,8 6,13 1,4 2,9 2,14 0,5 -1,9 -2,14 -1,5 -3,9 -6,13 -3,3 -7,6 -11,8 -5,2 -9,3 -14,3l-30 0z"/>
  <path class="fil2" d="M4944 9493c9,0 17,-1 24,-3 8,-2 15,-6 22,-11 6,-5 10,-12 14,-19 3,-8 4,-16 4,-24 0,-7 -1,-15 -4,-22 -3,-7 -7,-13 -13,-18 -6,-6 -12,-10 -19,-12 6,-3 12,-7 17,-12 5,-5 8,-11 11,-17 2,-7 4,-13 4,-20 0,-7 -2,-15 -5,-22 -2,-7 -7,-13 -12,-18 -6,-5 -13,-9 -20,-11 -7,-2 -15,-3 -22,-3 -8,0 -15,1 -22,3 -7,2 -14,5 -20,10 -5,4 -10,10 -13,17 -3,7 -4,14 -4,21l0 0 27 0 0 0c0,-5 2,-10 5,-14 3,-5 7,-8 12,-9 4,-2 9,-3 15,-3 5,0 10,1 15,3 6,2 9,6 12,11 3,5 4,10 4,15 0,6 -1,11 -4,17 -3,5 -6,9 -11,12 -4,3 -9,5 -15,6 -6,1 -11,2 -17,2l0 25c6,0 12,0 18,1 7,1 12,3 17,7 5,3 9,8 12,13 3,6 5,12 5,18 0,6 -2,12 -5,17 -3,6 -8,10 -13,12 -6,2 -12,3 -19,3 -5,0 -11,-1 -16,-2 -6,-2 -10,-5 -14,-10 -3,-5 -5,-10 -5,-16l-28 0c0,8 2,15 5,23 4,7 9,13 15,18 6,4 13,8 21,9 7,2 15,3 22,3z"/>
  <path class="fil2" d="M5913 9398c7,0 15,-1 22,-3 7,-1 14,-5 20,-9 6,-5 11,-11 14,-18 3,-7 5,-14 5,-22l-28 0c0,5 -1,10 -5,15 -3,5 -7,8 -12,10 -6,1 -11,2 -16,2 -5,0 -9,0 -14,-2 -4,-1 -8,-3 -11,-7 -3,-3 -6,-7 -7,-11 -1,-5 -2,-9 -2,-14l0 -94c0,-5 1,-9 2,-14 1,-4 4,-8 7,-11 3,-3 7,-6 11,-7 5,-1 9,-2 14,-2 5,0 10,1 16,3 5,1 9,4 12,9 4,5 5,10 5,15l28 0c0,-7 -2,-15 -5,-22 -3,-7 -8,-13 -14,-17 -6,-5 -13,-8 -20,-10 -7,-2 -15,-3 -22,-3 -7,0 -13,1 -20,2 -6,1 -12,4 -17,7 -6,4 -11,8 -14,13 -4,6 -7,12 -8,18 -2,6 -3,12 -3,19l0 94c0,7 1,13 3,19 1,7 4,13 8,18 3,5 8,10 14,13 5,3 11,6 17,7 7,1 13,2 20,2z"/>
  <path class="fil2" d="M6021 9396l28 0 0 -83 31 0c6,0 13,0 19,-2 7,-1 13,-4 18,-8 6,-4 10,-8 14,-14 3,-6 6,-12 7,-18 2,-7 2,-14 2,-20 0,-7 0,-13 -2,-20 -1,-6 -4,-12 -7,-18 -4,-6 -8,-10 -14,-14 -5,-4 -11,-7 -18,-8 -6,-2 -13,-3 -19,-3l-59 0 0 208zm28 -107l0 -76 31 0c4,0 9,1 13,3 5,1 9,4 12,8 3,4 5,8 6,13 1,4 2,9 2,14 0,5 -1,9 -2,14 -1,5 -3,9 -6,13 -3,3 -7,6 -12,8 -4,2 -9,3 -13,3l-31 0z"/>
  <polygon class="fil2" points="6233,9396 6261,9396 6261,9188 6233,9188 6183,9224 6200,9245 6233,9220 "/>
  <path class="fil2" d="M7213 9372c8,0 15,-1 23,-2 7,-2 14,-6 20,-10 6,-5 11,-11 14,-18 3,-7 4,-14 4,-22l-27 0c0,6 -2,10 -5,15 -3,5 -8,8 -13,10 -5,1 -10,2 -16,2 -4,0 -9,0 -13,-2 -4,-1 -8,-3 -12,-7 -3,-3 -5,-7 -6,-11 -2,-5 -2,-9 -2,-14l0 -94c0,-5 0,-9 2,-13 1,-5 3,-9 6,-12 4,-3 8,-6 12,-7 4,-1 9,-2 13,-2 6,0 11,1 16,3 5,1 10,4 13,9 3,5 5,10 5,15l27 0c0,-7 -1,-15 -4,-22 -3,-7 -8,-13 -14,-17 -6,-5 -13,-8 -20,-10 -8,-2 -15,-3 -23,-3 -6,0 -13,1 -19,2 -6,2 -12,4 -18,7 -5,4 -10,8 -14,13 -4,6 -6,12 -8,18 -1,6 -2,13 -2,19l0 94c0,7 1,13 2,20 2,6 4,12 8,17 4,5 9,10 14,13 6,4 12,6 18,7 6,2 13,2 19,2z"/>
  <path class="fil2" d="M7322 9370l28 0 0 -82 30 0c7,0 13,-1 20,-3 6,-1 12,-4 18,-8 5,-4 10,-8 13,-14 4,-6 6,-12 8,-18 1,-7 2,-14 2,-20 0,-7 -1,-13 -2,-20 -2,-6 -4,-12 -8,-18 -3,-6 -8,-10 -13,-14 -6,-4 -12,-7 -18,-8 -7,-2 -13,-3 -20,-3l-58 0 0 208zm28 -107l0 -76 30 0c5,0 10,1 14,3 5,2 8,4 11,8 3,4 5,8 7,13 1,5 1,9 1,14 0,5 0,10 -1,14 -2,5 -4,9 -7,13 -3,3 -6,6 -11,8 -4,2 -9,3 -14,3l-30 0z"/>
  <polygon class="fil2" points="7479,9370 7599,9370 7599,9345 7513,9345 7599,9245 7599,9220 7479,9220 7479,9245 7566,9245 7479,9345 "/>
  <path class="fil2" d="M8507 9398c7,0 15,-1 22,-3 8,-1 14,-5 20,-9 7,-5 11,-11 14,-18 3,-7 5,-14 5,-22l-28 0c0,5 -1,10 -5,15 -3,5 -7,8 -12,10 -6,1 -11,2 -16,2 -5,0 -9,0 -13,-2 -5,-1 -9,-3 -12,-7 -3,-3 -6,-7 -7,-11 -1,-5 -2,-9 -2,-14l0 -94c0,-5 1,-9 2,-14 1,-4 4,-8 7,-11 3,-3 7,-6 12,-7 4,-1 8,-2 13,-2 5,0 10,1 16,3 5,1 9,4 12,9 4,5 5,10 5,15l28 0c0,-7 -2,-15 -5,-22 -3,-7 -7,-13 -14,-17 -6,-5 -12,-8 -20,-10 -7,-2 -15,-3 -22,-3 -7,0 -13,1 -19,2 -7,1 -13,4 -18,7 -6,4 -10,8 -14,13 -4,6 -7,12 -8,18 -2,6 -3,12 -3,19l0 94c0,7 1,13 3,19 1,7 4,13 8,18 4,5 8,10 14,13 5,3 11,6 18,7 6,1 12,2 19,2z"/>
  <path class="fil2" d="M8616 9396l27 0 0 -83 31 0c6,0 13,0 19,-2 7,-1 13,-4 18,-8 6,-4 10,-8 14,-14 3,-6 6,-12 7,-18 2,-7 2,-14 2,-20 0,-7 0,-13 -2,-20 -1,-6 -4,-12 -7,-18 -4,-6 -8,-10 -14,-14 -5,-4 -11,-7 -18,-8 -6,-2 -13,-3 -19,-3l-58 0 0 208zm27 -107l0 -76 31 0c4,0 9,1 14,3 4,1 8,4 11,8 3,4 5,8 6,13 1,4 2,9 2,14 0,5 -1,9 -2,14 -1,5 -3,9 -6,13 -3,3 -7,6 -11,8 -5,2 -10,3 -14,3l-31 0z"/>
  <path class="fil2" d="M8773 9396l119 0 0 -25 -90 0c1,-9 4,-18 9,-26 4,-8 10,-14 17,-20 7,-6 14,-12 22,-16 8,-5 15,-10 22,-16 7,-6 12,-13 16,-22 4,-8 6,-17 6,-26 0,-8 -2,-16 -4,-24 -3,-8 -7,-14 -13,-20 -6,-6 -13,-9 -21,-12 -7,-2 -15,-3 -23,-3 -8,0 -15,1 -22,3 -8,2 -14,5 -20,10 -6,4 -11,10 -14,17 -3,7 -5,15 -5,22l28 0c0,-5 2,-10 5,-15 3,-5 7,-8 12,-9 5,-2 10,-3 16,-3 4,0 9,1 13,2 4,1 8,4 11,7 4,3 6,7 7,11 1,5 2,9 2,14 0,9 -3,17 -8,25 -5,7 -12,13 -20,18 -8,4 -15,9 -23,14 -7,5 -14,11 -19,18 -6,7 -11,15 -15,23 -4,8 -6,17 -7,26 -1,9 -1,18 -1,27l0 0z"/>
  <path class="fil2" d="M9803 9493c8,0 15,-1 23,-3 7,-1 14,-5 20,-9 6,-5 11,-11 14,-18 3,-7 4,-14 4,-22l-27 0c0,5 -2,10 -5,15 -3,5 -7,8 -13,10 -5,1 -10,2 -16,2 -4,0 -9,0 -13,-2 -4,-1 -8,-3 -12,-7 -3,-3 -5,-7 -6,-11 -2,-5 -2,-9 -2,-14l0 -94c0,-5 0,-9 2,-14 1,-4 3,-8 6,-11 4,-3 8,-6 12,-7 4,-1 9,-2 13,-2 6,0 11,1 16,3 6,1 10,4 13,9 3,5 5,10 5,15l27 0c0,-7 -1,-15 -4,-22 -3,-7 -8,-13 -14,-17 -6,-5 -13,-8 -20,-10 -8,-2 -15,-3 -23,-3 -6,0 -13,1 -19,2 -6,1 -12,4 -18,7 -5,4 -10,8 -14,13 -4,6 -6,11 -8,18 -1,6 -2,12 -2,19l0 94c0,7 1,13 2,19 2,7 4,13 8,18 4,5 9,10 14,13 6,3 12,6 18,7 6,1 13,2 19,2z"/>
  <path class="fil2" d="M9912 9491l28 0 0 -83 30 0c7,0 13,0 20,-2 6,-1 12,-4 18,-8 5,-4 10,-9 13,-14 4,-6 6,-12 8,-18 1,-7 2,-14 2,-20 0,-7 -1,-13 -2,-20 -2,-6 -4,-12 -8,-18 -3,-6 -8,-10 -13,-14 -6,-4 -12,-7 -18,-8 -7,-2 -13,-3 -20,-3l-58 0 0 208zm28 -107l0 -76 30 0c5,0 10,1 14,3 5,1 8,4 11,8 3,4 5,8 7,13 1,4 1,9 1,14 0,5 0,9 -1,14 -2,5 -4,9 -7,13 -3,3 -6,6 -11,8 -4,2 -9,3 -14,3l-30 0z"/>
  <path class="fil2" d="M10098 9408l42 -80 0 80 -42 0zm42 83l28 0 0 -58 21 0 0 -25 -21 0 0 -125 -35 0 -66 125 0 25 73 0 0 58z"/>
  <path class="fil2" d="M11112 9545c8,0 15,-1 23,-3 7,-2 14,-5 20,-10 6,-4 10,-10 14,-17 3,-7 4,-15 4,-22l-27 0c0,5 -2,10 -5,15 -3,4 -8,8 -13,9 -5,2 -10,3 -16,3 -4,0 -9,-1 -13,-2 -5,-1 -8,-4 -12,-7 -3,-3 -5,-7 -7,-11 -1,-5 -2,-9 -2,-14l0 -94c0,-5 1,-9 2,-14 2,-4 4,-8 7,-11 4,-4 7,-6 12,-7 4,-2 9,-2 13,-2 6,0 11,1 16,2 5,2 10,5 13,10 3,4 5,9 5,15l27 0c0,-8 -1,-15 -4,-22 -4,-7 -8,-13 -14,-18 -6,-4 -13,-8 -20,-9 -8,-2 -15,-3 -23,-3 -6,0 -13,1 -19,2 -6,1 -12,4 -18,7 -5,3 -10,8 -14,13 -4,5 -7,11 -8,18 -2,6 -2,12 -2,19l0 94c0,7 0,13 2,19 1,7 4,12 8,18 4,5 9,9 14,13 6,3 12,6 18,7 6,1 13,2 19,2z"/>
  <path class="fil2" d="M11221 9543l28 0 0 -83 30 0c7,0 13,-1 20,-2 6,-2 12,-4 18,-8 5,-4 10,-9 13,-14 4,-6 6,-12 8,-19 1,-6 2,-13 2,-19 0,-7 -1,-14 -2,-20 -2,-7 -4,-13 -8,-18 -3,-6 -8,-11 -13,-15 -6,-3 -12,-6 -18,-8 -7,-1 -13,-2 -20,-2l-58 0 0 208zm28 -108l0 -75 30 0c5,0 9,1 14,3 4,1 8,4 11,8 3,4 5,8 6,13 2,4 2,9 2,14 0,4 0,9 -2,14 -1,4 -3,9 -6,12 -3,4 -7,7 -11,9 -5,1 -9,2 -14,2l-30 0z"/>
  <path class="fil2" d="M11438 9545c7,0 14,-1 20,-3 7,-1 13,-4 19,-8 5,-4 10,-9 14,-15 3,-6 6,-12 7,-19 1,-7 2,-14 2,-21 0,-8 -1,-17 -3,-25 -3,-8 -7,-16 -12,-22 -6,-7 -13,-11 -22,-14 -8,-3 -16,-4 -24,-4 -8,0 -14,1 -19,2 3,-5 7,-11 11,-18l36 -63 -31 0 -29 51c-5,9 -10,18 -15,27 -5,9 -9,18 -12,28 -3,10 -4,20 -4,31 0,7 0,14 2,22 1,7 3,14 6,20 4,7 8,12 14,17 5,5 12,9 19,11 7,2 14,3 21,3zm0 -25l-1 0 -2 0c-4,0 -9,-2 -14,-4 -4,-2 -8,-5 -10,-9 -3,-4 -5,-9 -6,-13 -1,-5 -1,-10 -1,-15 0,-5 0,-10 1,-15 1,-5 3,-9 7,-13 3,-5 7,-8 11,-9 5,-2 10,-3 15,-3 5,0 10,1 15,3 5,1 8,4 11,9 3,4 6,8 7,13 1,5 1,10 1,15 0,5 0,10 -1,15 -1,5 -4,10 -7,14 -3,4 -6,7 -11,9 -5,2 -10,3 -15,3z"/>
  <polygon class="fil2" points="12361,9724 12389,9724 12389,9541 12438,9541 12438,9517 12312,9517 12312,9541 12361,9541 "/>
  <path class="fil2" d="M12483 9724l28 0 0 -82 30 0c7,0 13,-1 20,-3 6,-1 12,-4 18,-8 5,-4 10,-8 13,-14 4,-6 6,-12 8,-18 1,-7 2,-14 2,-20 0,-7 -1,-13 -2,-20 -2,-6 -4,-12 -8,-18 -3,-6 -8,-10 -13,-14 -6,-4 -12,-7 -18,-8 -7,-2 -13,-2 -20,-2l-58 0 0 207zm28 -107l0 -76 30 0c5,0 9,1 14,3 4,2 8,4 11,8 3,4 5,8 6,13 2,5 2,9 2,14 0,5 0,10 -2,14 -1,5 -3,9 -6,13 -3,3 -7,6 -11,8 -5,2 -9,3 -14,3l-30 0z"/>
  <path class="fil2" d="M12700 9726c8,0 15,-1 22,-2 8,-2 15,-5 21,-10 6,-4 11,-10 14,-17 4,-7 5,-14 5,-22 0,-22 -13,-41 -38,-56 22,-15 33,-33 33,-54 0,-7 -1,-14 -4,-21 -3,-7 -7,-13 -13,-17 -5,-5 -12,-8 -19,-10 -7,-2 -14,-3 -21,-3 -7,0 -14,1 -21,3 -7,2 -14,5 -19,10 -6,4 -10,10 -13,17 -3,7 -4,14 -4,21 0,21 11,39 33,54 -25,15 -38,34 -38,56 0,8 2,15 5,22 3,7 8,13 14,17 6,5 13,8 21,10 7,1 14,2 22,2zm0 -25c-5,0 -11,0 -16,-2 -5,-1 -10,-4 -13,-9 -4,-4 -5,-9 -5,-15 0,-6 1,-12 5,-18 4,-5 8,-10 13,-14 5,-3 11,-7 16,-10 5,3 11,7 16,10 5,4 10,9 13,14 4,6 5,12 5,18 0,6 -1,11 -5,15 -3,5 -8,8 -13,9 -5,2 -11,2 -16,2zm0 -96c-20,-12 -29,-25 -29,-40 0,-5 1,-10 4,-14 2,-4 6,-7 11,-9 4,-2 9,-3 14,-3 5,0 10,1 15,3 4,2 8,5 11,9 2,4 4,9 4,14 0,15 -10,28 -30,40z"/>
  <polygon class="fil2" points="13610,10145 13638,10145 13638,9963 13687,9963 13687,9938 13561,9938 13561,9963 13610,9963 "/>
  <path class="fil2" d="M13732 10145l28 0 0 -82 30 0c7,0 14,-1 20,-2 7,-2 12,-4 18,-8 5,-4 10,-9 13,-15 4,-5 7,-11 8,-18 1,-6 2,-13 2,-20 0,-6 -1,-13 -2,-19 -1,-7 -4,-13 -8,-18 -3,-6 -8,-11 -13,-15 -6,-4 -11,-6 -18,-8 -6,-1 -13,-2 -20,-2l-58 0 0 207zm28 -107l0 -75 30 0c5,0 10,1 14,2 5,2 9,5 12,9 3,4 5,8 6,12 1,5 1,10 1,14 0,5 0,10 -1,15 -1,4 -3,8 -6,12 -3,4 -7,7 -12,9 -4,1 -9,2 -14,2l-30 0z"/>
  <polygon class="fil2" points="13944,10145 13972,10145 13972,9938 13944,9938 13894,9974 13911,9994 13944,9970 "/>
  <path class="fil2" d="M14112 10148c6,0 13,-1 20,-2 6,-2 12,-4 18,-8 5,-4 10,-9 14,-14 4,-6 6,-12 8,-18 1,-7 2,-13 2,-20l0 -89c0,-6 -1,-13 -2,-19 -2,-7 -4,-13 -8,-19 -4,-5 -9,-10 -14,-13 -6,-4 -12,-7 -18,-8 -7,-2 -14,-2 -20,-2 -7,0 -13,0 -20,2 -6,1 -13,4 -18,8 -6,3 -10,8 -14,13 -4,6 -6,12 -8,19 -1,6 -2,13 -2,19l0 89c0,7 1,13 2,20 2,6 4,12 8,18 4,5 8,10 14,14 5,4 12,6 18,8 7,1 13,2 20,2zm0 -25c-5,0 -9,-1 -14,-3 -5,-1 -9,-4 -12,-7 -3,-4 -6,-8 -7,-13 -1,-4 -2,-9 -2,-14l0 -5 69 -48 0 53c0,5 0,10 -2,14 -1,5 -3,9 -6,13 -4,3 -8,6 -12,7 -5,2 -9,3 -14,3zm-35 -73l0 -53c0,-4 1,-9 2,-14 1,-5 4,-9 7,-12 3,-4 7,-7 12,-8 5,-2 9,-2 14,-2 5,0 9,0 14,2 4,1 8,4 12,8 3,3 5,7 6,12 2,5 2,10 2,14l0 6 -69 47z"/>
  <polygon class="fil2" points="696,10145 724,10145 724,9963 773,9963 773,9938 647,9938 647,9963 696,9963 "/>
  <path class="fil2" d="M818 10145l28 0 0 -82 30 0c7,0 13,-1 20,-2 6,-2 12,-4 18,-8 5,-4 10,-9 13,-15 4,-5 6,-11 8,-18 1,-6 2,-13 2,-20 0,-6 -1,-13 -2,-19 -2,-7 -4,-13 -8,-18 -3,-6 -8,-11 -13,-15 -6,-4 -12,-6 -18,-8 -7,-1 -13,-2 -20,-2l-58 0 0 207zm28 -107l0 -75 30 0c5,0 10,1 14,2 5,2 8,5 11,9 3,4 6,8 7,12 1,5 1,10 1,14 0,5 0,10 -1,15 -1,4 -4,8 -7,12 -3,4 -6,7 -11,9 -4,1 -9,2 -14,2l-30 0z"/>
  <path class="fil2" d="M1037 10145l30 -50c5,-9 10,-18 15,-27 5,-9 8,-19 11,-29 3,-10 4,-20 4,-30 0,-7 0,-15 -2,-22 -1,-7 -3,-14 -6,-20 -4,-7 -8,-13 -13,-18 -6,-5 -12,-8 -19,-10 -7,-2 -14,-3 -22,-3 -7,0 -13,1 -20,2 -7,2 -13,5 -19,9 -5,4 -10,9 -13,15 -4,6 -6,12 -8,19 -1,7 -2,13 -2,20 0,9 1,17 4,25 2,9 6,16 12,23 5,6 12,11 21,14 8,2 16,4 25,4 7,0 13,-1 19,-3 -4,6 -7,11 -11,18l-37 63 31 0zm-2 -103c-5,0 -10,-1 -15,-3 -4,-2 -8,-5 -11,-9 -3,-4 -5,-9 -7,-14 -1,-5 -1,-10 -1,-15 0,-5 0,-10 1,-15 2,-5 4,-9 7,-13 3,-4 7,-7 12,-9 4,-2 9,-3 14,-3l2 0 1 0c5,0 9,1 14,3 4,3 8,6 10,10 3,4 5,8 6,13 1,5 2,10 2,14 0,5 -1,10 -2,15 -1,5 -3,10 -6,14 -4,4 -7,7 -12,9 -5,2 -10,3 -15,3z"/>
  <path class="fil2" d="M2818 11242l27 0 0 -82 31 0c7,0 13,-1 20,-3 6,-1 12,-4 17,-8 6,-4 10,-8 14,-14 4,-6 6,-12 8,-18 1,-7 2,-13 2,-20 0,-7 -1,-13 -2,-20 -2,-6 -4,-12 -8,-18 -4,-5 -8,-10 -14,-14 -5,-4 -11,-7 -17,-8 -7,-2 -13,-2 -20,-2l-58 0 0 207zm27 -107l0 -76 31 0c5,0 9,1 14,3 4,2 8,4 11,8 3,4 5,8 6,13 1,5 2,9 2,14 0,5 -1,10 -2,14 -1,5 -3,9 -6,13 -3,4 -7,6 -11,8 -5,2 -9,3 -14,3l-31 0z"/>
  <polygon class="fil2" points="2994,11242 3024,11242 3095,11059 3095,11035 2975,11035 2975,11059 3065,11059 "/>
  <path class="fil2" d="M3845 10992l28 0 0 -83 30 0c7,0 14,-1 20,-2 7,-2 13,-4 18,-8 5,-4 10,-9 14,-14 3,-6 6,-12 7,-19 1,-6 2,-13 2,-19 0,-7 -1,-14 -2,-20 -1,-7 -4,-13 -7,-18 -4,-6 -9,-11 -14,-15 -5,-3 -11,-6 -18,-8 -6,-1 -13,-2 -20,-2l-58 0 0 208zm28 -108l0 -75 30 0c5,0 10,1 14,3 5,1 9,4 12,8 3,4 5,8 6,13 1,4 1,9 1,14 0,4 0,9 -1,14 -1,4 -3,9 -6,12 -3,4 -7,7 -12,9 -4,1 -9,2 -14,2l-30 0z"/>
  <path class="fil2" d="M4063 10994c7,0 13,-1 20,-3 7,-2 13,-5 19,-9 6,-5 10,-10 13,-16 4,-7 6,-13 7,-20 2,-7 2,-14 2,-21 0,0 0,0 0,0 0,0 0,0 0,0 0,-7 0,-14 -1,-20 -2,-7 -4,-14 -7,-20 -4,-6 -8,-12 -13,-16 -6,-5 -12,-8 -19,-10 -6,-2 -13,-3 -20,-3 -12,0 -23,3 -31,7l0 -54 83 0 0 -25 -111 0 0 124 28 0c0,-5 1,-10 4,-14 3,-5 7,-8 12,-10 5,-2 10,-2 15,-2 5,0 10,1 15,3 4,2 8,6 11,10 3,5 4,10 5,15 1,5 2,10 2,15 0,0 0,0 0,0 0,0 0,0 0,0 0,5 -1,11 -2,16 -1,5 -3,10 -6,14 -2,5 -6,8 -11,11 -5,2 -10,3 -15,3 -6,0 -11,-1 -17,-3 -5,-3 -9,-6 -12,-11 -3,-5 -4,-11 -4,-16l-28 0c0,7 2,15 5,22 3,7 7,14 13,19 6,5 12,9 20,11 7,2 15,3 23,3z"/>
  <path class="fil2" d="M4965 10862l28 0 0 -82 30 0c7,0 13,-1 20,-3 6,-1 12,-4 18,-8 5,-3 10,-8 13,-14 4,-6 6,-12 8,-18 1,-7 2,-13 2,-20 0,-7 -1,-13 -2,-20 -2,-6 -4,-12 -8,-18 -3,-5 -8,-10 -13,-14 -6,-4 -12,-7 -18,-8 -7,-2 -13,-2 -20,-2l-58 0 0 207zm28 -107l0 -75 30 0c5,0 10,0 14,2 5,2 8,5 11,8 3,4 5,8 7,13 1,5 1,9 1,14 0,5 0,10 -1,14 -2,5 -4,9 -7,13 -3,4 -6,6 -11,8 -4,2 -9,3 -14,3l-30 0z"/>
  <path class="fil2" d="M5183 10864c8,0 16,-1 24,-3 8,-2 15,-5 21,-11 6,-5 11,-11 14,-19 3,-8 4,-16 4,-24 0,-7 -1,-14 -4,-22 -3,-7 -7,-13 -13,-18 -5,-5 -12,-9 -19,-12 7,-3 12,-7 17,-12 5,-5 9,-10 11,-17 3,-6 4,-13 4,-20 0,-7 -1,-15 -4,-22 -3,-7 -7,-13 -13,-18 -6,-5 -12,-9 -20,-11 -7,-2 -15,-3 -22,-3 -7,0 -15,1 -22,3 -7,2 -14,5 -19,10 -6,5 -11,10 -14,17 -3,7 -4,14 -4,21l0 1 28 0 0 -1c0,-5 1,-9 4,-14 3,-4 7,-8 12,-9 5,-2 10,-3 15,-3 5,0 10,1 16,3 5,3 9,6 11,11 3,5 4,10 4,16 0,5 -1,11 -4,16 -2,5 -6,9 -11,12 -4,4 -9,6 -15,7 -6,1 -11,1 -17,1l0 25c6,0 12,0 19,1 6,1 11,3 16,7 5,3 9,8 12,13 3,6 5,12 5,18 0,6 -2,12 -5,17 -3,6 -7,10 -13,12 -6,2 -12,4 -18,4 -6,0 -12,-1 -17,-3 -5,-2 -10,-5 -14,-10 -3,-5 -5,-10 -5,-15l-28 0c0,7 2,15 6,22 3,7 8,13 14,18 6,5 13,8 21,10 7,1 15,2 23,2z"/>
  <path class="fil2" d="M6139 10784l27 0 0 -82 31 0c6,0 13,-1 20,-2 6,-2 12,-4 17,-8 6,-4 10,-9 14,-15 4,-5 6,-11 7,-18 2,-6 3,-13 3,-20 0,-6 -1,-13 -3,-19 -1,-7 -3,-13 -7,-18 -4,-6 -8,-11 -14,-15 -5,-4 -11,-6 -17,-8 -7,-1 -14,-2 -20,-2l-58 0 0 207zm27 -107l0 -75 31 0c5,0 9,1 14,2 4,2 8,5 11,9 3,4 5,8 6,12 1,5 2,10 2,14 0,5 -1,10 -2,15 -1,4 -3,8 -6,12 -3,4 -7,7 -11,8 -5,2 -9,3 -14,3l-31 0z"/>
  <polygon class="fil2" points="6350,10784 6378,10784 6378,10577 6350,10577 6301,10613 6317,10633 6350,10609 "/>
  <path class="fil2" d="M7241 10756l27 0 0 -83 31 0c6,0 13,0 20,-2 6,-1 12,-4 17,-8 6,-4 10,-9 14,-14 4,-6 6,-12 7,-19 2,-6 3,-13 3,-19 0,-7 -1,-13 -3,-20 -1,-6 -3,-12 -7,-18 -4,-6 -8,-11 -14,-14 -5,-4 -11,-7 -17,-8 -7,-2 -14,-3 -20,-3l-58 0 0 208zm27 -107l0 -76 31 0c5,0 9,1 14,3 4,1 8,4 11,8 3,4 5,8 6,13 1,4 2,9 2,14 0,5 -1,9 -2,14 -1,5 -3,9 -6,13 -3,3 -7,6 -11,8 -5,2 -9,3 -14,3l-31 0z"/>
  <polygon class="fil2" points="7398,10756 7518,10756 7518,10731 7431,10731 7518,10631 7518,10606 7398,10606 7398,10631 7485,10631 7398,10731 "/>
  <path class="fil2" d="M8336 10786l27 0 0 -82 31 0c6,0 13,-1 19,-3 7,-1 13,-4 18,-8 6,-4 10,-8 14,-14 4,-6 6,-12 7,-18 2,-7 3,-13 3,-20 0,-7 -1,-13 -3,-20 -1,-6 -3,-12 -7,-18 -4,-6 -8,-10 -14,-14 -5,-4 -11,-7 -18,-8 -6,-2 -13,-2 -19,-2l-58 0 0 207zm27 -107l0 -76 31 0c5,0 9,1 14,3 4,2 8,4 11,8 3,4 5,8 6,13 1,5 2,9 2,14 0,5 -1,10 -2,14 -1,5 -3,9 -6,13 -3,3 -7,6 -11,8 -5,2 -9,3 -14,3l-31 0z"/>
  <path class="fil2" d="M8493 10786l120 0 0 -25 -91 0c2,-9 5,-17 9,-25 5,-8 10,-15 17,-21 7,-6 15,-11 22,-16 8,-5 16,-10 22,-16 7,-6 13,-13 16,-22 4,-8 6,-17 6,-26 0,-8 -1,-16 -4,-24 -2,-7 -7,-14 -13,-20 -6,-5 -13,-9 -20,-11 -8,-3 -16,-4 -24,-4 -8,0 -15,1 -22,3 -8,2 -14,5 -20,10 -6,4 -11,10 -14,17 -3,7 -5,15 -5,22l28 0c0,-5 2,-10 5,-15 3,-4 7,-8 12,-9 5,-2 11,-3 16,-3 4,0 9,1 13,2 5,1 8,4 12,7 3,3 5,7 6,12 1,4 2,8 2,13 0,9 -3,17 -8,25 -5,8 -12,14 -20,18 -7,4 -15,9 -22,14 -8,6 -14,12 -20,18 -6,7 -11,15 -15,23 -3,8 -6,17 -7,26 -1,9 -1,18 -1,27l0 0z"/>
  <path class="fil2" d="M9511 10864l28 0 0 -83 30 0c7,0 14,0 20,-2 7,-1 13,-4 18,-8 5,-4 10,-9 14,-14 3,-6 6,-12 7,-19 1,-6 2,-13 2,-19 0,-7 -1,-13 -2,-20 -1,-6 -4,-13 -7,-18 -4,-6 -9,-11 -14,-14 -5,-4 -11,-7 -18,-8 -6,-2 -13,-3 -20,-3l-58 0 0 208zm28 -108l0 -75 30 0c5,0 10,1 14,3 5,1 9,4 12,8 3,4 5,8 6,13 1,4 1,9 1,14 0,5 0,9 -1,14 -1,4 -3,9 -6,12 -3,4 -7,7 -12,9 -4,2 -9,2 -14,2l-30 0z"/>
  <path class="fil2" d="M9697 10781l43 -80 0 80 -43 0zm43 83l27 0 0 -58 21 0 0 -25 -21 0 0 -125 -34 0 -67 125 0 25 74 0 0 58z"/>
  <path class="fil2" d="M10622 10993l27 0 0 -82 31 0c6,0 13,-1 19,-2 7,-2 13,-5 18,-9 6,-3 10,-8 14,-14 3,-5 6,-12 7,-18 2,-7 2,-13 2,-20 0,-6 0,-13 -2,-19 -1,-7 -4,-13 -7,-19 -4,-5 -8,-10 -14,-14 -5,-4 -11,-6 -18,-8 -6,-1 -13,-2 -19,-2l-58 0 0 207zm27 -107l0 -75 31 0c4,0 9,0 14,2 4,2 8,5 11,8 3,4 5,9 6,13 1,5 2,9 2,14 0,5 -1,10 -2,14 -1,5 -3,9 -6,13 -3,4 -7,6 -11,8 -5,2 -10,3 -14,3l-31 0z"/>
  <path class="fil2" d="M10839 10995c7,0 13,0 20,-2 7,-2 13,-4 18,-9 6,-4 11,-9 14,-15 4,-6 6,-12 8,-19 1,-6 2,-13 2,-20 0,-9 -1,-17 -4,-25 -2,-9 -6,-16 -12,-23 -6,-6 -13,-11 -21,-13 -8,-3 -16,-4 -25,-4 -7,0 -13,0 -19,2 4,-5 7,-11 11,-18l37 -63 -31 0 -30 50c-5,9 -10,18 -15,27 -5,9 -8,19 -11,29 -3,10 -4,20 -4,30 0,8 0,15 1,22 2,7 4,14 7,21 3,6 8,12 13,17 6,5 12,8 19,10 7,2 14,3 22,3zm0 -24l-2 0 -1 -1c-5,0 -9,-1 -14,-3 -4,-2 -8,-5 -11,-9 -2,-5 -4,-9 -5,-14 -1,-5 -2,-9 -2,-14 0,-5 1,-10 2,-15 1,-5 3,-10 6,-14 3,-4 7,-7 12,-9 5,-2 10,-3 15,-3 5,0 10,1 14,3 5,2 9,5 12,9 3,4 5,9 6,14 1,5 2,10 2,15 0,5 -1,10 -2,15 -1,5 -3,9 -6,13 -3,5 -7,8 -12,10 -4,2 -9,3 -14,3z"/>
  <path class="fil2" d="M11651 11242l27 0 0 -82 31 0c6,0 13,-1 19,-3 7,-1 13,-4 18,-8 6,-4 10,-8 14,-14 3,-6 6,-12 7,-18 2,-7 2,-13 2,-20 0,-7 0,-13 -2,-20 -1,-6 -4,-12 -7,-18 -4,-5 -8,-10 -14,-14 -5,-4 -11,-7 -18,-8 -6,-2 -13,-2 -19,-2l-58 0 0 207zm27 -107l0 -76 31 0c4,0 9,1 13,3 5,2 9,4 12,8 3,4 5,8 6,13 1,5 2,9 2,14 0,5 -1,10 -2,14 -1,5 -3,9 -6,13 -3,4 -7,6 -12,8 -4,2 -9,3 -13,3l-31 0z"/>
  <path class="fil2" d="M11868 11244c7,0 15,-1 22,-2 7,-2 14,-5 21,-9 6,-5 11,-11 14,-18 3,-7 5,-14 5,-22 0,-22 -13,-40 -38,-56 22,-15 33,-33 33,-54 0,-7 -2,-14 -4,-21 -3,-7 -7,-13 -13,-17 -6,-5 -12,-8 -19,-10 -7,-2 -14,-3 -21,-3 -8,0 -15,1 -22,3 -7,2 -13,5 -19,10 -5,4 -10,10 -12,17 -3,7 -4,14 -4,21 0,21 11,39 33,54 -26,16 -39,34 -39,56 0,8 2,15 5,22 4,7 8,13 15,18 6,4 13,7 20,9 8,1 15,2 23,2zm0 -25c-6,0 -11,0 -17,-2 -5,-1 -9,-4 -13,-9 -3,-4 -5,-9 -5,-15 0,-6 2,-12 6,-17 3,-6 8,-11 13,-15 5,-3 10,-7 16,-10 5,3 10,7 15,10 6,4 10,9 14,15 3,5 5,11 5,17 0,6 -2,11 -5,15 -4,5 -8,8 -13,9 -6,2 -11,2 -16,2zm0 -96c-20,-12 -30,-25 -30,-40 0,-5 2,-10 4,-14 3,-4 6,-7 11,-9 5,-2 10,-3 15,-3 4,0 9,1 14,3 5,2 9,5 11,9 3,4 4,9 4,14 0,15 -10,28 -29,40z"/>
  <path class="fil2" d="M7156 12090l27 0 0 -83 31 0c6,0 13,0 19,-2 7,-1 13,-4 18,-8 6,-4 10,-9 14,-14 3,-6 6,-12 7,-19 2,-6 2,-13 2,-19 0,-7 0,-13 -2,-20 -1,-6 -4,-12 -7,-18 -4,-6 -8,-10 -14,-14 -5,-4 -11,-7 -18,-8 -6,-2 -13,-3 -19,-3l-58 0 0 208zm27 -107l0 -76 31 0c4,0 9,1 14,3 4,1 8,4 11,8 3,4 5,8 6,13 1,4 2,9 2,14 0,5 -1,9 -2,14 -1,5 -3,9 -6,13 -3,3 -7,6 -11,8 -5,2 -10,3 -14,3l-31 0z"/>
  <path class="fil2" d="M7373 12092c6,0 13,-1 19,-2 7,-1 12,-4 18,-7 6,-3 10,-8 14,-13 4,-5 7,-11 8,-17 2,-7 3,-13 3,-20l0 -94c0,-7 -1,-13 -3,-20 -1,-6 -4,-12 -8,-17 -4,-5 -8,-9 -14,-13 -6,-3 -11,-6 -18,-7 -6,-1 -13,-2 -19,-2 -7,0 -13,1 -20,2 -6,1 -12,4 -18,7 -5,4 -10,8 -14,13 -4,5 -6,11 -8,17 -2,7 -2,13 -2,20l0 94c0,7 0,13 2,20 2,6 4,12 8,17 4,5 9,10 14,13 6,3 12,6 18,7 7,1 13,2 20,2zm0 -25c-5,0 -9,0 -14,-2 -4,-1 -8,-3 -12,-7 -3,-3 -5,-7 -7,-11 -1,-5 -2,-9 -2,-14l0 -94c0,-5 1,-9 2,-14 2,-4 4,-8 7,-11 4,-4 8,-6 12,-7 5,-1 9,-2 14,-2 4,0 9,1 13,2 5,1 9,3 12,7 3,3 6,7 7,11 1,5 2,9 2,14l0 94c0,5 -1,9 -2,14 -1,4 -4,8 -7,11 -3,4 -7,6 -12,7 -4,2 -9,2 -13,2z"/>
  <polygon class="fil2" points="7475,12090 7595,12090 7595,12065 7509,12065 7595,11965 7595,11940 7475,11940 7475,11965 7562,11965 7475,12065 "/>
  <path class="fil2" d="M8802 12202l27 0 0 -82 31 0c6,0 13,-1 19,-3 7,-1 13,-4 18,-8 6,-4 10,-8 14,-14 3,-6 6,-12 7,-18 2,-7 2,-13 2,-20 0,-7 0,-13 -2,-20 -1,-6 -4,-12 -7,-18 -4,-5 -8,-10 -14,-14 -5,-4 -11,-7 -18,-8 -6,-2 -13,-2 -19,-2l-58 0 0 207zm27 -107l0 -76 31 0c4,0 9,1 14,3 4,2 8,4 11,8 3,4 5,8 6,13 1,5 2,9 2,14 0,5 -1,10 -2,14 -1,5 -3,9 -6,13 -3,4 -7,6 -11,8 -5,2 -10,3 -14,3l-31 0z"/>
  <path class="fil2" d="M9019 12204c6,0 13,0 19,-2 7,-1 12,-3 18,-7 6,-3 10,-7 14,-13 4,-5 7,-11 8,-17 2,-7 3,-13 3,-19l0 -95c0,-7 -1,-13 -3,-19 -1,-7 -4,-12 -8,-18 -4,-5 -8,-9 -14,-13 -6,-3 -11,-5 -18,-7 -6,-1 -13,-2 -19,-2 -7,0 -13,1 -20,2 -6,2 -12,4 -18,7 -5,4 -10,8 -14,13 -4,6 -6,11 -8,18 -2,6 -2,12 -2,19l0 95c0,6 0,12 2,19 2,6 4,12 8,17 4,6 9,10 14,13 6,4 12,6 18,7 7,2 13,2 20,2zm0 -25c-5,0 -9,0 -14,-2 -4,-1 -8,-3 -12,-6 -3,-4 -5,-8 -7,-12 -1,-4 -2,-9 -2,-13l0 -95c0,-4 1,-9 2,-13 2,-5 4,-9 7,-12 4,-3 8,-6 12,-7 5,-1 9,-2 14,-2 4,0 9,1 13,2 5,1 9,4 12,7 3,3 6,7 7,12 1,4 2,9 2,13l0 95c0,4 -1,9 -2,13 -1,4 -4,8 -7,12 -3,3 -7,5 -12,6 -4,2 -9,2 -13,2z"/>
  <path class="fil2" d="M9150 12119l42 -80 0 80 -42 0zm42 83l28 0 0 -58 21 0 0 -25 -21 0 0 -124 -35 0 -66 124 0 25 73 0 0 58z"/>
  <path class="fil2" d="M10368 12452l27 0 0 -82 31 0c6,0 13,-1 19,-2 7,-2 13,-4 18,-8 6,-4 10,-9 14,-15 3,-5 6,-11 7,-18 2,-6 2,-13 2,-20 0,-6 0,-13 -2,-19 -1,-7 -4,-13 -7,-18 -4,-6 -8,-11 -14,-15 -5,-4 -11,-6 -18,-8 -6,-1 -13,-2 -19,-2l-58 0 0 207zm27 -107l0 -75 31 0c4,0 9,1 14,2 4,2 8,5 11,9 3,4 5,8 6,12 1,5 2,10 2,14 0,5 -1,10 -2,15 -1,4 -3,8 -6,12 -3,4 -7,7 -11,9 -5,1 -10,2 -14,2l-31 0z"/>
  <path class="fil2" d="M10585 12455c6,0 13,-1 19,-2 6,-2 12,-4 18,-7 6,-4 10,-8 14,-13 4,-6 7,-11 8,-18 2,-6 3,-13 3,-19l0 -95c0,-6 -1,-13 -3,-19 -1,-6 -4,-12 -8,-17 -4,-6 -8,-10 -14,-13 -6,-4 -12,-6 -18,-7 -6,-2 -13,-2 -19,-2 -7,0 -13,0 -20,2 -6,1 -12,3 -18,7 -5,3 -10,7 -14,13 -4,5 -6,11 -8,17 -2,6 -2,13 -2,19l0 95c0,6 0,13 2,19 2,7 4,12 8,18 4,5 9,9 14,13 6,3 12,5 18,7 7,1 13,2 20,2zm0 -25c-5,0 -9,-1 -14,-2 -4,-1 -8,-4 -12,-7 -3,-3 -5,-7 -7,-12 -1,-4 -2,-8 -2,-13l0 -95c0,-4 1,-9 2,-13 2,-5 4,-8 7,-12 4,-3 8,-5 12,-6 5,-2 9,-2 14,-2 4,0 9,0 13,2 5,1 9,3 12,6 3,4 6,7 7,12 1,4 2,9 2,13l0 95c0,5 -1,9 -2,13 -1,5 -4,9 -7,12 -3,3 -7,6 -12,7 -4,1 -9,2 -13,2z"/>
  <path class="fil2" d="M10747 12455c8,0 15,-1 23,-3 7,-2 14,-5 20,-9 7,-4 11,-10 14,-17 4,-7 5,-15 5,-22 0,-22 -12,-41 -38,-57 22,-15 33,-33 33,-53 0,-8 -1,-15 -4,-22 -3,-6 -7,-12 -12,-17 -6,-5 -12,-8 -20,-10 -7,-1 -14,-2 -21,-2 -7,0 -14,1 -21,2 -7,2 -14,5 -19,10 -6,5 -10,11 -13,17 -2,7 -4,14 -4,22 0,20 11,38 33,53 -25,16 -38,35 -38,57 0,7 2,15 5,22 3,7 8,13 14,17 6,4 13,7 21,9 7,2 15,3 22,3zm0 -25c-5,0 -11,-1 -16,-2 -5,-2 -10,-5 -13,-9 -4,-5 -5,-10 -5,-15 0,-7 2,-12 5,-18 4,-6 8,-10 13,-14 5,-4 11,-8 16,-11 6,3 11,7 16,11 5,4 10,8 13,14 4,6 6,11 6,18 0,5 -2,10 -6,15 -3,4 -7,7 -13,9 -5,1 -10,2 -16,2zm0 -97c-19,-12 -29,-25 -29,-39 0,-6 1,-10 4,-15 2,-4 6,-7 11,-9 4,-2 9,-2 14,-2 5,0 10,0 15,2 5,2 8,5 11,9 3,5 4,9 4,15 0,14 -10,27 -30,39z"/>
  <path class="fil2" d="M8970 13233c7,0 13,-1 20,-2 6,-2 12,-4 18,-7 5,-4 10,-8 14,-13 4,-6 7,-12 8,-18 2,-6 2,-13 2,-19l0 -95c0,-6 0,-13 -2,-19 -1,-6 -4,-12 -8,-17 -4,-6 -9,-10 -14,-13 -6,-4 -12,-6 -18,-7 -7,-2 -13,-2 -20,-2 -6,0 -13,0 -19,2 -6,1 -12,3 -18,7 -6,3 -10,7 -14,13 -4,5 -7,11 -8,17 -2,6 -3,13 -3,19l0 95c0,6 1,13 3,19 1,6 4,12 8,18 4,5 8,9 14,13 6,3 12,5 18,7 6,1 13,2 19,2zm0 -25c-4,0 -9,-1 -13,-2 -5,-2 -9,-4 -12,-7 -3,-3 -6,-7 -7,-12 -2,-4 -2,-9 -2,-13l0 -95c0,-4 0,-9 2,-13 1,-5 4,-9 7,-12 3,-3 7,-5 12,-7 4,-1 9,-2 13,-2 5,0 9,1 14,2 4,2 8,4 12,7 3,3 5,7 7,12 1,4 2,9 2,13l0 95c0,4 -1,9 -2,13 -2,5 -4,9 -7,12 -4,3 -8,5 -12,7 -5,1 -9,2 -14,2z"/>
  <path class="fil2" d="M9073 13230l120 0 0 -25 -91 0c2,-9 5,-17 9,-25 5,-8 10,-15 17,-21 7,-6 15,-11 22,-16 8,-4 16,-10 22,-16 7,-6 13,-13 16,-21 4,-9 6,-18 6,-27 0,-8 -1,-16 -4,-23 -2,-8 -7,-15 -13,-20 -6,-6 -13,-10 -20,-12 -8,-2 -16,-3 -24,-3 -8,0 -15,0 -22,2 -8,2 -14,5 -20,10 -6,5 -11,11 -14,18 -3,7 -5,14 -5,22l28 0c0,-6 2,-11 5,-16 3,-4 7,-7 12,-9 5,-2 11,-3 16,-3 4,0 9,1 13,2 5,2 8,4 12,7 3,4 5,7 6,12 1,4 2,9 2,13 0,9 -3,17 -8,25 -5,8 -12,14 -20,18 -7,5 -15,10 -22,15 -8,5 -14,11 -20,18 -6,6 -11,14 -15,22 -3,9 -6,17 -7,26 -1,9 -1,18 -1,27l0 0z"/>
  <path class="fil2" d="M7293 13495c6,0 13,-1 19,-2 7,-1 13,-3 18,-7 6,-3 10,-8 14,-13 4,-5 7,-11 8,-17 2,-7 3,-13 3,-20l0 -94c0,-7 -1,-13 -3,-19 -1,-7 -4,-13 -8,-18 -4,-5 -8,-9 -14,-13 -5,-3 -11,-6 -18,-7 -6,-1 -13,-2 -19,-2 -7,0 -13,1 -20,2 -6,1 -12,4 -18,7 -5,4 -10,8 -14,13 -4,5 -6,11 -8,18 -2,6 -2,12 -2,19l0 94c0,7 0,13 2,20 2,6 4,12 8,17 4,5 9,10 14,13 6,4 12,6 18,7 7,1 13,2 20,2zm0 -25c-5,0 -9,0 -14,-2 -4,-1 -8,-3 -12,-7 -3,-3 -5,-7 -7,-11 -1,-5 -2,-9 -2,-14l0 -94c0,-5 1,-9 2,-14 2,-4 4,-8 7,-11 4,-3 8,-6 12,-7 5,-1 9,-2 14,-2 4,0 9,1 13,2 5,1 9,4 12,7 3,3 6,7 7,11 1,5 2,9 2,14l0 94c0,5 -1,9 -2,14 -1,4 -4,8 -7,11 -3,4 -7,6 -12,7 -4,2 -9,2 -13,2z"/>
  <polygon class="fil2" points="7395,13493 7515,13493 7515,13468 7429,13468 7515,13368 7515,13343 7395,13343 7395,13368 7482,13368 7395,13468 "/>
  <path class="fil2" d="M5614 13232c7,0 13,-1 19,-2 7,-1 13,-4 18,-7 6,-4 11,-8 15,-13 4,-5 6,-11 8,-18 1,-6 2,-13 2,-19l0 -94c0,-7 -1,-13 -2,-20 -2,-6 -4,-12 -8,-17 -4,-5 -9,-10 -15,-13 -5,-4 -11,-6 -18,-7 -6,-1 -12,-2 -19,-2 -6,0 -13,1 -19,2 -7,1 -13,3 -18,7 -6,3 -11,8 -14,13 -4,5 -7,11 -9,17 -1,7 -2,13 -2,20l0 94c0,6 1,13 2,19 2,7 5,13 9,18 3,5 8,9 14,13 5,3 11,6 18,7 6,1 13,2 19,2zm0 -25c-5,0 -9,-1 -14,-2 -4,-1 -8,-4 -11,-7 -4,-3 -6,-7 -7,-12 -2,-4 -2,-8 -2,-13l0 -94c0,-5 0,-9 2,-14 1,-5 3,-8 7,-12 3,-3 7,-5 11,-6 5,-2 9,-2 14,-2 5,0 9,0 14,2 4,1 8,3 11,6 4,4 6,7 7,12 2,5 2,9 2,14l0 94c0,5 0,9 -2,13 -1,5 -3,9 -7,12 -3,3 -7,6 -11,7 -5,1 -9,2 -14,2z"/>
  <polygon class="fil2" points="5771,13230 5799,13230 5799,13022 5771,13022 5722,13058 5738,13078 5771,13054 "/>
  <path class="fil2" d="M5510 12202l27 0 0 -82 31 0c6,0 13,-1 19,-3 7,-1 13,-4 18,-8 6,-4 10,-8 14,-14 3,-6 6,-12 7,-18 2,-7 2,-13 2,-20 0,-7 0,-13 -2,-20 -1,-6 -4,-12 -7,-18 -4,-5 -8,-10 -14,-14 -5,-4 -11,-7 -18,-8 -6,-2 -13,-2 -19,-2l-58 0 0 207zm27 -107l0 -76 31 0c4,0 9,1 14,3 4,2 8,4 11,8 3,4 5,8 6,13 1,5 2,9 2,14 0,5 -1,10 -2,14 -1,5 -3,9 -6,13 -3,4 -7,6 -11,8 -5,2 -10,3 -14,3l-31 0z"/>
  <path class="fil2" d="M5727 12204c6,0 13,0 19,-2 7,-1 13,-3 18,-7 6,-3 10,-7 14,-13 4,-5 7,-11 8,-17 2,-7 3,-13 3,-19l0 -95c0,-7 -1,-13 -3,-19 -1,-7 -4,-12 -8,-18 -4,-5 -8,-9 -14,-13 -5,-3 -11,-5 -18,-7 -6,-1 -13,-2 -19,-2 -7,0 -13,1 -20,2 -6,2 -12,4 -18,7 -5,4 -10,8 -14,13 -4,6 -6,11 -8,18 -2,6 -2,12 -2,19l0 95c0,6 0,12 2,19 2,6 4,12 8,17 4,6 9,10 14,13 6,4 12,6 18,7 7,2 13,2 20,2zm0 -25c-5,0 -9,0 -14,-2 -4,-1 -8,-3 -12,-6 -3,-4 -5,-8 -7,-12 -1,-4 -2,-9 -2,-13l0 -95c0,-4 1,-9 2,-13 2,-5 4,-9 7,-12 4,-3 8,-6 12,-7 5,-1 9,-2 14,-2 4,0 9,1 13,2 5,1 9,4 12,7 3,3 6,7 7,12 1,4 2,9 2,13l0 95c0,4 -1,9 -2,13 -1,4 -4,8 -7,12 -3,3 -7,5 -12,6 -4,2 -9,2 -13,2z"/>
  <path class="fil2" d="M5890 12204c8,0 16,-1 24,-3 8,-2 15,-6 21,-11 6,-5 11,-12 14,-19 3,-8 5,-16 5,-24 0,-7 -2,-15 -5,-22 -3,-7 -7,-13 -13,-18 -5,-5 -12,-9 -19,-12 7,-3 12,-7 17,-12 5,-5 9,-10 11,-17 3,-6 4,-13 4,-20 0,-7 -1,-15 -4,-22 -3,-7 -7,-13 -13,-18 -6,-5 -12,-9 -20,-11 -7,-2 -14,-3 -22,-3 -7,0 -15,1 -22,3 -7,2 -14,5 -19,10 -6,4 -10,10 -13,17 -3,7 -5,14 -5,21l0 1 28 0 0 -1c0,-5 1,-9 4,-14 3,-4 7,-8 12,-9 5,-2 10,-3 15,-3 5,0 11,1 16,3 5,3 9,6 11,11 3,5 4,10 4,16 0,5 -1,11 -4,16 -2,5 -6,9 -10,12 -5,4 -10,6 -16,7 -5,0 -11,1 -16,1l0 25c6,0 12,0 18,1 6,1 11,3 17,7 5,3 9,8 12,13 2,6 4,12 4,18 0,6 -2,12 -5,17 -3,6 -7,10 -13,12 -6,2 -12,3 -18,3 -6,0 -11,0 -17,-2 -5,-2 -10,-5 -13,-10 -4,-5 -6,-10 -6,-15l-27 0c0,7 1,15 5,22 3,7 8,13 14,18 6,5 13,8 21,10 7,1 15,2 23,2z"/>
  <path class="fil2" d="M3942 12452l28 0 0 -82 30 0c7,0 13,-1 20,-2 6,-2 12,-4 18,-8 5,-4 10,-9 13,-15 4,-5 6,-11 8,-18 1,-6 2,-13 2,-20 0,-6 -1,-13 -2,-19 -2,-7 -4,-13 -8,-18 -3,-6 -8,-11 -13,-15 -6,-4 -12,-6 -18,-8 -7,-1 -13,-2 -20,-2l-58 0 0 207zm28 -107l0 -75 30 0c5,0 10,1 14,2 5,2 8,5 11,9 3,4 5,8 7,12 1,5 1,10 1,14 0,5 0,10 -1,15 -2,4 -4,8 -7,12 -3,4 -6,7 -11,9 -4,1 -9,2 -14,2l-30 0z"/>
  <path class="fil2" d="M4159 12455c7,0 13,-1 20,-2 6,-2 12,-4 17,-7 6,-4 11,-8 15,-13 4,-6 6,-11 8,-18 1,-6 2,-13 2,-19l0 -95c0,-6 -1,-13 -2,-19 -2,-6 -4,-12 -8,-17 -4,-6 -9,-10 -15,-13 -5,-4 -11,-6 -17,-7 -7,-2 -13,-2 -20,-2 -6,0 -13,0 -19,2 -7,1 -13,3 -18,7 -6,3 -11,7 -14,13 -4,5 -7,11 -9,17 -1,6 -2,13 -2,19l0 95c0,6 1,13 2,19 2,7 5,12 9,18 3,5 8,9 14,13 5,3 11,5 18,7 6,1 13,2 19,2zm0 -25c-4,0 -9,-1 -13,-2 -5,-1 -9,-4 -12,-7 -3,-3 -6,-7 -7,-12 -2,-4 -2,-8 -2,-13l0 -95c0,-4 0,-9 2,-13 1,-5 4,-8 7,-12 3,-3 7,-5 12,-6 4,-2 9,-2 13,-2 5,0 9,0 14,2 4,1 8,3 11,6 4,4 6,7 8,12 1,4 2,9 2,13l0 95c0,5 -1,9 -2,13 -2,5 -4,9 -8,12 -3,3 -7,6 -11,7 -5,1 -9,2 -14,2z"/>
  <polygon class="fil2" points="4280,12452 4310,12452 4381,12270 4381,12245 4262,12245 4262,12270 4352,12270 "/>
  <polygon class="fil2" points="1991,6336 2018,6336 2018,6239 2082,6239 2082,6214 2018,6214 2018,6154 2100,6154 2100,6129 1991,6129 "/>
  <polygon class="fil2" points="2189,6336 2216,6336 2216,6154 2266,6154 2266,6129 2139,6129 2139,6154 2189,6154 "/>
  <polygon class="fil2" points="2324,6336 2354,6336 2425,6154 2425,6129 2305,6129 2305,6154 2395,6154 "/>
  <polygon class="fil2" points="652,5905 680,5905 680,5807 744,5807 744,5783 680,5783 680,5722 761,5722 761,5698 652,5698 "/>
  <polygon class="fil2" points="850,5905 878,5905 878,5722 927,5722 927,5698 801,5698 801,5722 850,5722 "/>
  <path class="fil2" d="M1029 5905l29 -50c5,-9 10,-19 15,-28 5,-9 9,-18 12,-28 2,-10 4,-20 4,-31 0,-7 -1,-14 -2,-21 -1,-7 -4,-14 -7,-21 -3,-6 -8,-12 -13,-17 -6,-5 -12,-8 -19,-11 -7,-2 -14,-3 -21,-3 -7,0 -14,1 -21,3 -7,1 -13,4 -18,8 -6,5 -10,10 -14,15 -3,6 -6,13 -7,20 -2,6 -3,13 -3,20 0,8 2,17 4,25 2,8 6,16 12,22 6,7 13,12 21,14 8,3 17,4 25,4 7,0 14,0 19,-2 -3,5 -7,11 -11,18l-37 63 32 0zm-2 -104c-5,0 -10,0 -15,-2 -5,-2 -9,-6 -12,-10 -3,-4 -5,-8 -6,-13 -1,-5 -2,-10 -2,-15 0,-5 1,-10 2,-15 1,-5 3,-10 6,-14 3,-4 7,-7 12,-9 5,-2 10,-3 15,-3l1 0 1 0c5,1 10,2 14,4 5,2 8,5 11,9 3,4 4,9 5,14 1,4 2,9 2,14 0,5 -1,10 -2,15 -1,5 -3,9 -6,14 -3,4 -7,7 -12,9 -4,2 -9,2 -14,2z"/>
  <polygon class="fil2" points="3272,6518 3300,6518 3300,6420 3364,6420 3364,6396 3300,6396 3300,6336 3381,6336 3381,6311 3272,6311 "/>
  <path class="fil2" d="M3483 6520c8,0 15,-1 23,-2 7,-2 14,-5 20,-10 6,-5 11,-11 14,-18 3,-7 4,-14 4,-22l-27 0c0,6 -2,11 -5,15 -3,5 -7,8 -13,10 -5,2 -10,3 -16,3 -4,0 -9,-1 -13,-2 -4,-2 -8,-4 -12,-7 -3,-4 -5,-8 -6,-12 -2,-4 -2,-9 -2,-13l0 -95c0,-4 0,-9 2,-13 1,-5 3,-9 6,-12 4,-3 8,-5 12,-7 4,-1 9,-2 13,-2 6,0 11,1 16,3 6,1 10,5 13,9 3,5 5,10 5,15l27 0c0,-7 -1,-14 -4,-22 -3,-7 -8,-12 -14,-17 -6,-5 -13,-8 -20,-10 -8,-2 -15,-3 -23,-3 -6,0 -13,1 -19,2 -6,2 -12,4 -18,7 -5,4 -10,8 -14,14 -4,5 -6,11 -8,17 -1,6 -2,13 -2,19l0 95c0,6 1,12 2,19 2,6 4,12 8,17 4,6 9,10 14,13 6,4 12,6 18,7 6,2 13,2 19,2z"/>
  <path class="fil2" d="M3647 6520c7,0 14,-1 21,-2 6,-2 13,-5 18,-10 6,-4 10,-10 14,-16 3,-6 5,-13 7,-19 1,-7 2,-14 2,-21 0,0 0,0 0,0 0,0 0,0 0,0 0,-7 -1,-14 -2,-21 -1,-7 -4,-13 -7,-20 -3,-6 -8,-11 -13,-16 -6,-4 -12,-7 -18,-9 -7,-2 -14,-3 -21,-3 -12,0 -23,2 -31,6l0 -53 83 0 0 -25 -111 0 0 123 28 0c0,-5 2,-10 5,-14 3,-4 6,-7 11,-9 5,-2 10,-3 15,-3 5,0 10,1 15,4 5,2 8,5 11,10 3,4 5,9 6,14 1,5 1,10 1,16 0,0 0,0 0,0 0,0 0,0 0,0 0,5 -1,10 -2,15 -1,5 -3,10 -5,15 -3,4 -7,8 -12,10 -5,2 -10,4 -15,4 -6,0 -11,-2 -16,-4 -6,-2 -10,-6 -13,-11 -2,-5 -4,-10 -4,-16l-28 0c0,8 2,15 5,22 3,8 7,14 13,19 6,6 13,9 20,11 8,2 15,3 23,3z"/>
  <polygon class="fil2" points="4578,6590 4606,6590 4606,6492 4669,6492 4669,6467 4606,6467 4606,6407 4687,6407 4687,6382 4578,6382 "/>
  <path class="fil2" d="M4789 6592c8,0 15,-1 23,-3 7,-2 14,-5 20,-10 6,-4 11,-10 14,-17 3,-7 4,-15 4,-22l-27 0c0,5 -2,10 -5,15 -3,4 -8,8 -13,9 -5,2 -10,3 -16,3 -4,0 -9,-1 -13,-2 -4,-1 -8,-4 -12,-7 -3,-3 -5,-7 -6,-11 -2,-5 -2,-9 -2,-14l0 -94c0,-5 0,-9 2,-14 1,-4 3,-8 6,-11 4,-4 8,-6 12,-7 4,-2 9,-2 13,-2 6,0 11,1 16,2 5,2 10,5 13,10 3,4 5,9 5,15l27 0c0,-8 -1,-15 -4,-22 -3,-7 -8,-13 -14,-18 -6,-4 -13,-8 -20,-9 -8,-2 -15,-3 -23,-3 -6,0 -13,1 -19,2 -6,1 -12,4 -18,7 -5,3 -10,8 -14,13 -4,5 -6,11 -8,18 -1,6 -2,12 -2,19l0 94c0,7 1,13 2,19 2,7 4,12 8,18 4,5 9,9 14,13 6,3 12,6 18,7 6,1 13,2 19,2z"/>
  <path class="fil2" d="M4953 6592c8,0 16,-1 24,-3 8,-2 15,-6 21,-11 6,-5 11,-12 14,-20 3,-7 5,-15 5,-23 0,-8 -2,-15 -5,-22 -2,-7 -7,-13 -12,-18 -6,-6 -12,-10 -19,-12 6,-3 12,-7 16,-12 5,-5 9,-11 12,-17 2,-7 3,-13 3,-20 0,-8 -1,-15 -4,-22 -3,-7 -7,-13 -13,-19 -5,-5 -12,-8 -19,-10 -8,-2 -15,-3 -23,-3 -7,0 -14,1 -22,3 -7,1 -13,5 -19,9 -6,5 -10,11 -13,18 -3,7 -5,14 -5,21l0 0 28 0 0 0c0,-5 2,-10 4,-14 3,-5 7,-8 12,-10 5,-1 10,-2 15,-2 6,0 11,1 16,3 5,2 9,6 12,11 2,5 4,10 4,15 0,6 -2,11 -4,16 -3,6 -7,10 -11,13 -5,3 -10,5 -16,6 -5,1 -11,2 -16,2l0 24c6,0 12,1 18,2 6,1 12,3 17,6 5,4 9,8 12,14 3,6 4,11 4,18 0,6 -1,11 -4,17 -4,6 -8,9 -14,12 -6,2 -12,3 -18,3 -6,0 -11,-1 -17,-2 -5,-2 -10,-5 -13,-10 -4,-5 -5,-10 -5,-16l-28 0c0,8 2,15 5,23 3,7 8,13 14,17 7,5 14,8 21,10 8,2 15,3 23,3z"/>
  <polygon class="fil2" points="5864,6676 5892,6676 5892,6578 5955,6578 5955,6553 5892,6553 5892,6493 5973,6493 5973,6469 5864,6469 "/>
  <path class="fil2" d="M6075 6678c8,0 15,-1 23,-2 7,-2 14,-5 20,-10 6,-5 11,-11 14,-18 3,-7 4,-14 4,-22l-27 0c0,6 -2,11 -5,15 -3,5 -8,8 -13,10 -5,2 -10,2 -16,2 -4,0 -9,0 -13,-2 -4,-1 -8,-3 -12,-6 -3,-4 -5,-8 -7,-12 -1,-4 -2,-9 -2,-13l0 -95c0,-5 1,-9 2,-13 2,-5 4,-9 7,-12 4,-3 8,-6 12,-7 4,-1 9,-2 13,-2 6,0 11,1 16,3 5,1 10,5 13,9 3,5 5,10 5,15l27 0c0,-7 -1,-15 -4,-22 -3,-7 -8,-13 -14,-17 -6,-5 -13,-8 -20,-10 -8,-2 -15,-3 -23,-3 -6,0 -13,1 -19,2 -6,2 -12,4 -18,7 -5,4 -10,8 -14,13 -4,6 -6,12 -8,18 -1,6 -2,13 -2,19l0 95c0,6 1,12 2,19 2,6 4,12 8,17 4,5 9,10 14,13 6,4 12,6 18,7 6,2 13,2 19,2z"/>
  <polygon class="fil2" points="6233,6676 6261,6676 6261,6469 6233,6469 6183,6504 6200,6525 6233,6500 "/>
  <polygon class="fil2" points="7165,6646 7193,6646 7193,6548 7256,6548 7256,6523 7193,6523 7193,6463 7274,6463 7274,6438 7165,6438 "/>
  <path class="fil2" d="M7376 6648c7,0 15,-1 22,-3 8,-2 14,-5 20,-9 7,-5 11,-11 14,-18 3,-7 5,-14 5,-22l-28 0c0,5 -1,10 -5,15 -3,4 -7,8 -12,9 -5,2 -11,3 -16,3 -5,0 -9,-1 -13,-2 -5,-1 -9,-4 -12,-7 -3,-3 -6,-7 -7,-11 -1,-5 -2,-9 -2,-14l0 -94c0,-5 1,-9 2,-14 1,-4 4,-8 7,-11 3,-4 7,-6 12,-7 4,-2 8,-2 13,-2 5,0 11,1 16,2 5,2 9,5 12,10 4,4 5,9 5,15l28 0c0,-8 -2,-15 -5,-22 -3,-7 -7,-13 -14,-18 -6,-4 -12,-8 -20,-9 -7,-2 -15,-3 -22,-3 -7,0 -13,1 -19,2 -7,1 -13,4 -18,7 -6,3 -10,8 -14,13 -4,5 -7,11 -8,18 -2,6 -3,12 -3,19l0 94c0,7 1,13 3,19 1,7 4,12 8,18 4,5 8,10 14,13 5,3 11,6 18,7 6,1 12,2 19,2z"/>
  <polygon class="fil2" points="7479,6646 7599,6646 7599,6621 7513,6621 7599,6521 7599,6496 7479,6496 7479,6521 7566,6521 7479,6621 "/>
  <polygon class="fil2" points="8458,6676 8486,6676 8486,6578 8550,6578 8550,6553 8486,6553 8486,6493 8567,6493 8567,6469 8458,6469 "/>
  <path class="fil2" d="M8670 6678c7,0 14,-1 22,-2 7,-2 14,-5 20,-10 6,-5 11,-11 14,-18 3,-7 4,-14 4,-22l-27 0c0,6 -2,11 -5,15 -3,5 -7,8 -13,10 -5,2 -10,2 -15,2 -5,0 -9,0 -14,-2 -4,-1 -8,-3 -11,-6 -4,-4 -6,-8 -7,-12 -2,-4 -2,-9 -2,-13l0 -95c0,-5 0,-9 2,-13 1,-5 3,-9 7,-12 3,-3 7,-6 11,-7 5,-1 9,-2 14,-2 5,0 10,1 15,3 6,1 10,5 13,9 3,5 5,10 5,15l27 0c0,-7 -1,-15 -4,-22 -3,-7 -8,-13 -14,-17 -6,-5 -13,-8 -20,-10 -8,-2 -15,-3 -22,-3 -7,0 -14,1 -20,2 -6,2 -12,4 -18,7 -5,4 -10,8 -14,13 -4,6 -6,12 -8,18 -1,6 -2,13 -2,19l0 95c0,6 1,12 2,19 2,6 4,12 8,17 4,5 9,10 14,13 6,4 12,6 18,7 6,2 13,2 20,2z"/>
  <path class="fil2" d="M8773 6676l119 0 0 -25 -90 0c1,-9 4,-17 9,-25 4,-8 10,-15 17,-21 7,-6 14,-11 22,-16 8,-5 15,-10 22,-16 7,-6 12,-13 16,-22 4,-8 6,-17 6,-26 0,-8 -2,-16 -4,-24 -3,-7 -7,-14 -13,-20 -6,-5 -13,-9 -21,-11 -7,-3 -15,-4 -23,-4 -8,0 -15,1 -22,3 -8,2 -14,5 -20,10 -6,4 -11,10 -14,17 -3,7 -5,15 -5,22l28 0c0,-5 2,-10 5,-15 3,-4 7,-8 12,-9 5,-2 10,-3 16,-3 4,0 9,1 13,2 4,1 8,4 11,7 4,3 6,7 7,12 1,4 2,8 2,13 0,9 -3,17 -8,25 -5,8 -12,14 -20,18 -8,4 -15,9 -23,14 -7,6 -14,12 -19,18 -6,7 -11,15 -15,23 -4,8 -6,17 -7,26 -1,9 -1,18 -1,27l0 0z"/>
  <polygon class="fil2" points="9746,6590 9774,6590 9774,6492 9837,6492 9837,6467 9774,6467 9774,6407 9855,6407 9855,6382 9746,6382 "/>
  <path class="fil2" d="M9957 6592c8,0 15,-1 23,-3 7,-2 14,-5 20,-10 6,-4 11,-10 14,-17 3,-7 4,-15 4,-22l-27 0c0,5 -2,10 -5,15 -3,4 -8,8 -13,9 -5,2 -10,3 -16,3 -4,0 -9,-1 -13,-2 -4,-1 -8,-4 -12,-7 -3,-3 -5,-7 -7,-11 -1,-5 -2,-9 -2,-14l0 -94c0,-5 1,-9 2,-14 2,-4 4,-8 7,-11 4,-4 8,-6 12,-7 4,-2 9,-2 13,-2 6,0 11,1 16,2 5,2 10,5 13,10 3,4 5,9 5,15l27 0c0,-8 -1,-15 -4,-22 -3,-7 -8,-13 -14,-18 -6,-4 -13,-8 -20,-9 -8,-2 -15,-3 -23,-3 -6,0 -13,1 -19,2 -6,1 -12,4 -18,7 -5,3 -10,8 -14,13 -4,5 -6,11 -8,18 -1,6 -2,12 -2,19l0 94c0,7 1,13 2,19 2,7 4,12 8,18 4,5 9,9 14,13 6,3 12,6 18,7 6,1 13,2 19,2z"/>
  <path class="fil2" d="M10089 6507l43 -80 0 80 -43 0zm43 83l27 0 0 -59 21 0 0 -24 -21 0 0 -125 -34 0 -67 125 0 24 74 0 0 59z"/>
  <polygon class="fil2" points="11046,6521 11074,6521 11074,6423 11138,6423 11138,6398 11074,6398 11074,6338 11155,6338 11155,6313 11046,6313 "/>
  <path class="fil2" d="M11258 6523c7,0 15,-1 22,-3 7,-2 14,-5 20,-10 6,-4 11,-10 14,-17 3,-7 5,-15 5,-22l-28 0c0,5 -2,10 -5,15 -3,4 -7,8 -13,9 -5,2 -10,3 -15,3 -5,0 -9,-1 -14,-2 -4,-1 -8,-4 -11,-7 -4,-3 -6,-7 -7,-11 -2,-5 -2,-9 -2,-14l0 -94c0,-5 0,-9 2,-14 1,-4 3,-8 7,-11 3,-4 7,-6 11,-7 5,-2 9,-2 14,-2 5,0 10,1 15,2 6,2 10,5 13,10 3,4 5,9 5,15l28 0c0,-8 -2,-15 -5,-22 -3,-7 -8,-13 -14,-18 -6,-4 -13,-8 -20,-9 -7,-2 -15,-3 -22,-3 -7,0 -13,1 -20,2 -6,1 -12,4 -18,7 -5,3 -10,8 -14,13 -4,5 -6,11 -8,18 -1,6 -2,12 -2,19l0 94c0,7 1,13 2,19 2,6 4,12 8,18 4,5 9,9 14,13 6,3 12,6 18,7 7,1 13,2 20,2z"/>
  <path class="fil2" d="M11421 6523c7,0 13,-1 20,-3 7,-1 13,-4 18,-8 6,-4 11,-9 14,-15 4,-6 6,-13 8,-19 1,-7 2,-14 2,-21 0,-8 -1,-17 -4,-25 -2,-8 -6,-16 -12,-22 -6,-7 -13,-11 -21,-14 -8,-3 -16,-4 -25,-4 -7,0 -13,1 -19,2 4,-5 7,-11 11,-18l37 -63 -31 0 -30 51c-5,8 -10,17 -15,27 -4,9 -8,18 -11,28 -3,10 -4,20 -4,31 0,7 0,14 1,21 2,8 4,14 7,21 3,7 8,12 13,17 6,5 12,9 19,11 7,2 15,3 22,3zm0 -25l-2 0 -1 0c-5,0 -9,-2 -14,-4 -4,-2 -8,-5 -11,-9 -2,-4 -4,-9 -5,-13 -1,-5 -2,-10 -2,-15 0,-5 1,-10 2,-15 1,-5 3,-9 6,-13 3,-5 7,-8 12,-9 5,-2 10,-3 15,-3 5,0 10,1 15,3 4,1 8,4 11,9 3,4 5,8 6,13 2,5 2,10 2,15 0,5 0,10 -2,15 -1,5 -3,10 -6,14 -3,4 -7,7 -11,9 -5,2 -10,3 -15,3z"/>
  <polygon class="fil2" points="12326,6339 12353,6339 12353,6242 12417,6242 12417,6217 12353,6217 12353,6157 12435,6157 12435,6132 12326,6132 "/>
  <polygon class="fil2" points="12524,6339 12551,6339 12551,6157 12601,6157 12601,6132 12474,6132 12474,6157 12524,6157 "/>
  <path class="fil2" d="M12700 6341c8,0 15,0 22,-2 8,-2 15,-5 21,-9 6,-5 11,-10 14,-17 4,-7 5,-15 5,-22 0,-22 -13,-41 -38,-57 22,-15 33,-33 33,-54 0,-7 -1,-14 -4,-21 -3,-7 -7,-12 -13,-17 -5,-5 -12,-8 -19,-10 -7,-2 -14,-2 -21,-2 -7,0 -14,0 -21,2 -7,2 -14,5 -19,10 -6,5 -10,10 -13,17 -3,7 -4,14 -4,21 0,21 11,39 33,54 -25,16 -38,35 -38,57 0,7 2,15 5,22 3,7 8,12 14,17 6,4 13,7 21,9 7,2 14,2 22,2zm0 -24c-5,0 -11,-1 -16,-3 -5,-1 -10,-4 -13,-9 -4,-4 -5,-9 -5,-14 0,-7 1,-13 5,-18 4,-6 8,-10 13,-14 5,-4 11,-8 16,-11 5,3 11,7 16,11 5,4 10,8 13,14 4,5 5,11 5,18 0,5 -1,10 -5,14 -3,5 -8,8 -13,9 -5,2 -11,3 -16,3zm0 -97c-20,-12 -29,-25 -29,-40 0,-5 1,-9 4,-14 2,-4 6,-7 11,-9 4,-2 9,-3 14,-3 5,0 10,1 15,3 4,2 8,5 11,9 2,5 4,9 4,14 0,15 -10,28 -30,40z"/>
  <polygon class="fil2" points="13584,5905 13611,5905 13611,5807 13675,5807 13675,5783 13611,5783 13611,5722 13693,5722 13693,5698 13584,5698 "/>
  <polygon class="fil2" points="13782,5905 13809,5905 13809,5722 13859,5722 13859,5698 13732,5698 13732,5722 13782,5722 "/>
  <polygon class="fil2" points="13953,5905 13980,5905 13980,5698 13953,5698 13903,5733 13919,5754 13953,5730 "/>
  <path class="fil2" d="M14121 5907c6,0 13,0 19,-2 7,-1 13,-4 18,-8 6,-3 11,-8 14,-14 4,-5 7,-11 8,-18 2,-6 3,-13 3,-19l0 -89c0,-7 -1,-13 -3,-20 -1,-6 -4,-13 -8,-18 -3,-6 -8,-10 -14,-14 -5,-4 -11,-6 -18,-8 -6,-1 -13,-2 -19,-2 -7,0 -14,1 -20,2 -7,2 -13,4 -18,8 -6,4 -11,8 -14,14 -4,5 -7,12 -8,18 -2,7 -3,13 -3,20l0 89c0,6 1,13 3,19 1,7 4,13 8,18 3,6 8,11 14,14 5,4 11,7 18,8 6,2 13,2 20,2zm0 -25c-5,0 -10,0 -14,-2 -5,-2 -9,-4 -12,-8 -4,-3 -6,-7 -7,-12 -1,-5 -2,-9 -2,-14l0 -6 69 -47 0 53c0,5 -1,9 -2,14 -1,5 -3,9 -7,12 -3,4 -7,6 -12,8 -4,2 -9,2 -13,2zm-35 -72l0 -53c0,-5 1,-10 2,-14 1,-5 3,-9 7,-13 3,-3 7,-6 12,-8 4,-1 9,-2 14,-2 4,0 9,1 13,2 5,2 9,5 12,8 4,4 6,8 7,13 1,4 2,9 2,14l0 6 -69 47z"/>
  <polygon class="fil2" points="11656,4817 11684,4817 11684,4719 11747,4719 11747,4695 11684,4695 11684,4635 11765,4635 11765,4610 11656,4610 "/>
  <path class="fil2" d="M11868 4819c8,0 15,0 22,-2 8,-2 15,-5 21,-9 6,-5 11,-10 14,-18 3,-7 5,-14 5,-21 0,-22 -13,-41 -38,-57 22,-15 33,-33 33,-54 0,-7 -1,-14 -4,-21 -3,-7 -7,-12 -13,-17 -5,-5 -12,-8 -19,-10 -7,-2 -14,-3 -21,-3 -7,0 -14,1 -21,3 -7,2 -14,5 -19,10 -6,5 -10,10 -13,17 -3,7 -4,14 -4,21 0,21 11,39 33,54 -25,16 -38,35 -38,57 0,7 2,14 5,21 3,8 8,13 14,18 6,4 13,7 21,9 7,2 14,2 22,2zm0 -24c-5,0 -11,-1 -16,-3 -5,-1 -10,-4 -13,-9 -4,-4 -5,-9 -5,-14 0,-7 1,-13 5,-18 4,-6 8,-11 13,-14 5,-4 11,-8 16,-11 5,3 11,7 16,11 5,3 9,8 13,14 4,5 5,11 5,18 0,5 -1,10 -5,14 -3,5 -8,8 -13,9 -5,2 -11,3 -16,3zm0 -97c-20,-12 -29,-25 -29,-40 0,-5 1,-10 4,-14 2,-4 6,-7 11,-9 4,-2 9,-3 14,-3 5,0 10,1 15,3 4,2 8,5 11,9 2,4 4,9 4,14 0,15 -10,28 -30,40z"/>
  <polygon class="fil2" points="10638,5068 10666,5068 10666,4970 10729,4970 10729,4945 10666,4945 10666,4885 10747,4885 10747,4860 10638,4860 "/>
  <path class="fil2" d="M10850 5070c7,0 13,-1 20,-3 7,-1 13,-4 18,-8 6,-4 11,-9 14,-15 4,-6 6,-13 8,-19 1,-7 2,-14 2,-21 0,-8 -1,-17 -4,-25 -2,-8 -6,-16 -12,-22 -6,-7 -13,-11 -21,-14 -8,-3 -16,-4 -25,-4 -7,0 -14,1 -19,2 4,-5 7,-11 11,-18l37 -63 -31 0 -30 51c-5,8 -10,17 -15,27 -5,9 -8,18 -11,28 -3,10 -5,20 -5,31 0,7 1,14 2,21 2,8 4,14 7,21 3,7 8,12 13,17 6,5 12,9 19,11 7,2 14,3 22,3zm0 -25l-2 0 -1 0c-5,-1 -10,-2 -14,-4 -4,-2 -8,-5 -11,-9 -2,-4 -4,-9 -5,-13 -1,-5 -2,-10 -2,-15 0,-5 1,-10 2,-15 1,-5 3,-9 6,-13 3,-5 7,-8 12,-10 5,-1 10,-2 15,-2 5,0 10,1 14,2 5,2 9,5 12,10 3,4 5,8 6,13 1,5 2,10 2,15 0,5 -1,10 -2,15 -1,5 -3,10 -6,14 -3,4 -7,7 -12,9 -4,2 -9,3 -14,3z"/>
  <polygon class="fil2" points="9523,5197 9551,5197 9551,5099 9614,5099 9614,5075 9551,5075 9551,5014 9632,5014 9632,4990 9523,4990 "/>
  <path class="fil2" d="M9704 5114l42 -80 0 80 -42 0zm42 83l28 0 0 -58 21 0 0 -25 -21 0 0 -124 -35 0 -66 124 0 25 73 0 0 58z"/>
  <polygon class="fil2" points="8356,5285 8384,5285 8384,5187 8447,5187 8447,5162 8384,5162 8384,5102 8465,5102 8465,5078 8356,5078 "/>
  <path class="fil2" d="M8508 5285l120 0 0 -25 -91 0c1,-9 4,-17 9,-25 5,-8 10,-15 17,-21 7,-6 15,-11 22,-16 8,-5 16,-10 22,-16 7,-6 13,-13 16,-22 4,-8 6,-17 6,-26 0,-8 -2,-16 -4,-24 -2,-7 -7,-14 -13,-20 -6,-5 -13,-9 -20,-11 -8,-3 -16,-4 -24,-4 -8,0 -15,1 -22,3 -8,2 -14,5 -20,10 -6,4 -11,10 -14,17 -3,7 -5,15 -5,22l28 0c0,-5 2,-10 5,-15 3,-4 7,-8 12,-9 5,-2 10,-3 16,-3 4,0 9,1 13,2 5,1 8,4 12,7 3,3 5,7 6,12 1,4 2,8 2,13 0,9 -3,17 -8,25 -5,8 -12,14 -20,18 -8,4 -15,9 -22,14 -8,6 -14,12 -20,18 -6,7 -11,15 -15,23 -3,8 -6,17 -7,26 -1,9 -1,18 -1,27l0 0z"/>
  <polygon class="fil2" points="7244,5272 7271,5272 7271,5174 7335,5174 7335,5150 7271,5150 7271,5090 7352,5090 7352,5065 7244,5065 "/>
  <polygon class="fil2" points="7395,5272 7515,5272 7515,5247 7429,5247 7515,5147 7515,5123 7395,5123 7395,5147 7482,5147 7395,5247 "/>
  <polygon class="fil2" points="6126,5285 6154,5285 6154,5187 6217,5187 6217,5162 6154,5162 6154,5102 6235,5102 6235,5078 6126,5078 "/>
  <polygon class="fil2" points="6332,5285 6360,5285 6360,5078 6332,5078 6283,5113 6299,5134 6332,5109 "/>
  <polygon class="fil2" points="4964,5199 4992,5199 4992,5101 5056,5101 5056,5076 4992,5076 4992,5016 5073,5016 5073,4991 4964,4991 "/>
  <path class="fil2" d="M5177 5201c8,0 16,-1 24,-3 8,-2 15,-6 21,-11 6,-5 11,-12 14,-20 3,-7 4,-15 4,-23 0,-8 -1,-15 -4,-22 -3,-7 -7,-13 -13,-18 -5,-6 -12,-10 -19,-12 6,-3 12,-7 17,-12 5,-5 9,-11 11,-17 3,-7 4,-13 4,-20 0,-8 -2,-15 -4,-22 -3,-7 -7,-13 -13,-19 -6,-5 -12,-8 -20,-10 -7,-2 -15,-3 -22,-3 -7,0 -15,1 -22,3 -7,1 -14,5 -19,9 -6,5 -11,11 -14,18 -3,7 -4,14 -4,21l0 0 28 0 0 0c0,-5 1,-10 4,-14 3,-5 7,-8 12,-10 5,-1 10,-2 15,-2 5,0 10,1 16,3 5,2 9,6 11,11 3,4 4,10 4,15 0,6 -1,11 -4,16 -2,6 -6,10 -11,13 -4,3 -9,5 -15,6 -6,1 -11,2 -17,2l0 24c6,0 12,1 19,2 6,1 11,3 16,6 5,4 9,8 12,14 3,6 5,11 5,18 0,6 -2,11 -5,17 -3,5 -7,9 -13,12 -6,2 -12,3 -18,3 -6,0 -12,-1 -17,-2 -5,-2 -10,-5 -14,-10 -3,-5 -5,-10 -5,-16l-28 0c0,8 2,15 5,23 4,7 9,13 15,17 6,5 13,8 21,10 7,2 15,3 23,3z"/>
  <polygon class="fil2" points="3847,5068 3875,5068 3875,4970 3939,4970 3939,4945 3875,4945 3875,4885 3956,4885 3956,4860 3847,4860 "/>
  <path class="fil2" d="M4059 5070c7,0 14,-1 21,-3 7,-2 13,-5 19,-9 5,-5 10,-10 13,-16 3,-7 6,-13 7,-20 1,-7 2,-14 2,-21 0,0 0,0 0,0 0,0 0,0 0,0 0,-7 0,-14 -2,-21 -1,-6 -3,-13 -7,-19 -3,-6 -7,-12 -13,-16 -5,-5 -11,-8 -18,-10 -7,-2 -14,-3 -21,-3 -12,0 -22,3 -31,7l0 -54 84 0 0 -25 -111 0 0 124 27 0c1,-5 2,-10 5,-15 3,-4 7,-7 12,-9 4,-2 9,-3 14,-3 6,0 11,2 15,4 5,2 9,6 12,10 2,5 4,10 5,15 1,5 1,10 1,15 0,0 0,0 0,0 0,0 0,0 0,0 0,5 0,10 -1,16 -1,5 -3,10 -6,14 -3,5 -7,8 -11,10 -5,3 -10,4 -16,4 -5,0 -11,-1 -16,-3 -5,-3 -9,-6 -12,-11 -3,-6 -5,-11 -5,-16l-27 0c0,7 1,15 4,22 3,7 8,13 14,19 6,5 12,9 20,11 7,2 15,3 22,3z"/>
  <polygon class="fil2" points="2823,4817 2851,4817 2851,4719 2914,4719 2914,4695 2851,4695 2851,4635 2932,4635 2932,4610 2823,4610 "/>
  <polygon class="fil2" points="2994,4817 3024,4817 3095,4635 3095,4610 2975,4610 2975,4635 3065,4635 "/>
  <path class="fil2" d="M5456 3922l28 0 14 -50 61 0 13 50 29 0 -43 -156 -14 -52 -32 0 -56 208zm49 -75l6 -22c9,-35 15,-63 17,-85 3,22 8,50 18,85l6 22 -47 0z"/>
  <polygon class="fil2" points="5642,3922 5669,3922 5669,3824 5733,3824 5733,3799 5669,3799 5669,3739 5751,3739 5751,3714 5642,3714 "/>
  <path class="fil2" d="M5854 3924c8,0 16,-1 24,-3 8,-2 15,-6 21,-11 6,-5 11,-12 14,-19 3,-8 5,-16 5,-24 0,-8 -2,-15 -5,-22 -3,-7 -7,-13 -13,-18 -5,-6 -12,-10 -19,-12 7,-3 12,-7 17,-12 5,-5 9,-11 11,-17 3,-7 4,-13 4,-20 0,-8 -1,-15 -4,-22 -3,-7 -7,-13 -13,-18 -6,-5 -12,-9 -20,-11 -7,-2 -14,-3 -22,-3 -7,0 -15,1 -22,3 -7,2 -14,5 -19,9 -6,5 -10,11 -13,18 -3,7 -5,14 -5,21l0 0 28 0 0 0c0,-5 1,-10 4,-14 3,-5 7,-8 12,-10 5,-1 10,-2 15,-2 5,0 11,1 16,3 5,2 9,6 11,11 3,5 4,10 4,15 0,6 -1,11 -4,16 -2,6 -6,10 -10,13 -5,3 -10,5 -16,6 -5,1 -11,2 -16,2l0 24c6,0 12,1 18,2 6,1 11,3 17,7 5,3 9,8 12,13 2,6 4,11 4,18 0,6 -2,11 -5,17 -3,6 -7,10 -13,12 -6,2 -12,3 -18,3 -6,0 -11,-1 -17,-2 -5,-2 -10,-5 -13,-10 -4,-5 -6,-10 -6,-16l-27 0c0,8 1,15 5,23 3,7 8,13 14,18 7,4 13,8 21,9 7,2 15,3 23,3z"/>
  <path class="fil2" d="M7138 3961l29 0 14 -50 60 0 14 50 28 0 -42 -155 -14 -52 -32 0 -57 207zm49 -75l6 -22c10,-34 15,-63 18,-85 2,22 8,51 17,85l7 22 -48 0z"/>
  <polygon class="fil2" points="7324,3961 7352,3961 7352,3863 7415,3863 7415,3839 7352,3839 7352,3778 7433,3778 7433,3754 7324,3754 "/>
  <polygon class="fil2" points="7476,3961 7596,3961 7596,3936 7509,3936 7596,3836 7596,3811 7476,3811 7476,3836 7563,3836 7476,3936 "/>
  <path class="fil2" d="M8815 3923l29 0 13 -50 61 0 13 50 29 0 -42 -155 -15 -52 -31 0 -57 207zm49 -74l6 -23c9,-34 15,-62 17,-85 3,23 9,51 18,85l6 23 -47 0z"/>
  <polygon class="fil2" points="9001,3923 9029,3923 9029,3826 9092,3826 9092,3801 9029,3801 9029,3741 9110,3741 9110,3716 9001,3716 "/>
  <path class="fil2" d="M9181 3840l43 -80 0 80 -43 0zm43 83l28 0 0 -58 20 0 0 -25 -20 0 0 -124 -35 0 -67 124 0 25 74 0 0 58z"/>
  <path class="fil2" d="M10385 3655l29 0 13 -50 61 0 13 50 29 0 -42 -156 -15 -52 -31 0 -57 208zm49 -75l6 -22c9,-35 15,-63 18,-85 2,22 8,50 17,85l6 22 -47 0z"/>
  <polygon class="fil2" points="10571,3655 10599,3655 10599,3557 10662,3557 10662,3532 10599,3532 10599,3472 10680,3472 10680,3447 10571,3447 "/>
  <path class="fil2" d="M10783 3657c7,0 15,-1 22,-3 8,-1 15,-4 21,-9 6,-4 11,-10 14,-17 3,-7 5,-14 5,-22 0,-22 -13,-41 -38,-57 22,-15 33,-33 33,-53 0,-8 -1,-15 -4,-21 -3,-7 -7,-13 -13,-18 -5,-4 -12,-8 -19,-9 -7,-2 -14,-3 -21,-3 -7,0 -14,1 -22,3 -7,1 -13,5 -19,9 -5,5 -9,11 -12,18 -3,6 -4,13 -4,21 0,20 11,38 33,53 -26,16 -38,35 -38,57 0,8 1,15 5,22 3,7 8,13 14,17 6,5 13,8 20,9 8,2 15,3 23,3zm0 -25c-6,0 -11,-1 -16,-2 -6,-2 -10,-5 -13,-9 -4,-5 -6,-10 -6,-15 0,-6 2,-12 6,-18 4,-5 8,-10 13,-14 5,-4 10,-7 16,-11 5,4 11,7 16,11 5,4 9,9 13,14 3,6 5,12 5,18 0,5 -2,10 -5,15 -3,4 -8,7 -13,9 -5,1 -11,2 -16,2zm0 -97c-20,-11 -30,-25 -30,-39 0,-5 2,-10 4,-14 3,-5 7,-8 11,-10 5,-1 10,-2 15,-2 5,0 10,1 14,2 5,2 9,5 11,10 3,4 4,9 4,14 0,14 -9,28 -29,39z"/>
  <polygon class="fil2" points="8829,2835 8857,2835 8857,2737 8920,2737 8920,2713 8857,2713 8857,2652 8938,2652 8938,2628 8829,2628 "/>
  <path class="fil2" d="M8981 2893l27 0 0 -83c8,18 23,27 44,27 6,0 12,-1 17,-2 6,-2 11,-5 16,-9 4,-5 8,-10 11,-15 2,-5 4,-11 5,-17 1,-6 2,-12 2,-18l0 -31c0,-6 -1,-12 -2,-18 -1,-6 -3,-12 -5,-18 -3,-5 -7,-10 -11,-14 -5,-4 -10,-7 -16,-9 -5,-2 -11,-3 -17,-3 -21,0 -36,9 -44,27l0 -25 -27 0 0 208zm60 -81c-5,0 -9,0 -14,-2 -4,-2 -8,-4 -11,-8 -3,-4 -5,-8 -6,-13 -1,-4 -2,-9 -2,-13l0 -31c0,-5 1,-10 2,-14 1,-5 3,-9 6,-12 3,-4 7,-7 11,-8 5,-2 9,-3 14,-3 5,0 9,1 14,2 4,2 8,5 12,8 3,4 5,8 6,13 1,4 2,9 2,14l0 31c0,4 -1,9 -2,14 -1,4 -3,8 -6,12 -4,4 -8,6 -12,8 -5,2 -9,2 -14,2z"/>
  <path class="fil2" d="M9143 2835l120 0 0 -25 -91 0c2,-9 5,-17 9,-25 5,-8 11,-15 18,-21 7,-6 14,-11 22,-16 8,-5 15,-10 22,-16 7,-6 12,-13 16,-22 3,-8 5,-17 5,-26 0,-8 -1,-16 -4,-24 -2,-7 -6,-14 -12,-20 -6,-5 -13,-9 -21,-11 -8,-3 -16,-4 -24,-4 -7,0 -15,1 -22,3 -7,2 -14,5 -20,10 -6,4 -11,10 -14,17 -3,7 -4,15 -4,22l27 0c0,-5 2,-10 5,-15 3,-4 8,-8 13,-9 5,-2 10,-3 15,-3 5,0 9,1 14,2 4,1 8,4 11,7 3,3 5,7 7,12 1,4 1,9 1,13 0,9 -2,17 -7,25 -6,8 -12,14 -20,18 -8,4 -16,9 -23,14 -7,6 -14,12 -20,18 -6,7 -11,15 -14,23 -4,8 -6,17 -7,26 -1,9 -2,18 -2,27l0 0z"/>
  <polygon class="fil2" points="5490,2835 5518,2835 5518,2737 5581,2737 5581,2713 5518,2713 5518,2652 5599,2652 5599,2628 5490,2628 "/>
  <path class="fil2" d="M5642 2893l27 0 0 -83c8,18 23,27 44,27 6,0 12,-1 17,-2 6,-2 11,-5 16,-9 4,-5 8,-10 11,-15 2,-5 4,-11 5,-17 1,-6 2,-12 2,-18l0 -31c0,-6 -1,-12 -2,-18 -1,-6 -3,-12 -5,-18 -3,-5 -7,-10 -11,-14 -5,-4 -10,-7 -16,-9 -5,-2 -11,-3 -17,-3 -21,0 -36,9 -44,27l0 -25 -27 0 0 208zm60 -81c-5,0 -9,0 -14,-2 -4,-2 -8,-4 -11,-8 -3,-4 -5,-8 -6,-13 -1,-4 -2,-9 -2,-13l0 -31c0,-5 1,-10 2,-14 1,-5 3,-9 6,-12 3,-4 7,-7 11,-8 5,-2 9,-3 14,-3 5,0 9,1 14,2 4,2 8,5 12,8 3,4 5,8 6,13 1,4 2,9 2,14l0 31c0,4 -1,9 -2,14 -1,4 -3,8 -6,12 -4,4 -8,6 -12,8 -5,2 -9,2 -14,2z"/>
  <polygon class="fil2" points="5859,2835 5886,2835 5886,2628 5859,2628 5809,2663 5825,2684 5859,2659 "/>
  <path class="fil2" d="M7291 8021c7,0 15,-1 22,-3 7,-2 14,-5 20,-10 6,-5 11,-10 14,-17 3,-8 5,-15 5,-22l-28 0c0,5 -1,10 -5,14 -3,5 -7,8 -12,10 -6,2 -11,3 -16,3 -5,0 -9,-1 -14,-2 -4,-2 -8,-4 -11,-7 -3,-3 -6,-7 -7,-12 -1,-4 -2,-9 -2,-13l0 -95c0,-4 1,-9 2,-13 1,-4 4,-8 7,-12 3,-3 7,-5 11,-7 5,-1 9,-2 14,-2 5,0 10,1 16,3 5,2 9,5 12,9 4,5 5,10 5,16l28 0c0,-8 -2,-15 -5,-22 -3,-7 -8,-13 -14,-18 -6,-5 -13,-8 -20,-10 -7,-1 -15,-2 -22,-2 -7,0 -13,0 -20,2 -6,1 -12,3 -17,7 -6,3 -11,7 -14,13 -4,5 -7,11 -8,17 -2,7 -3,13 -3,19l0 95c0,6 1,13 3,19 1,6 4,12 8,17 3,6 8,10 14,14 5,3 11,5 17,7 7,1 13,2 20,2z"/>
  <polygon class="fil2" points="7394,8018 7514,8018 7514,7993 7427,7993 7514,7894 7514,7869 7394,7869 7394,7894 7481,7894 7394,7993 "/>
  <path class="fil0 str0" d="M9052 1286c-812,-365 -1176,-1277 -1686,-1277 -511,0 -874,912 -1687,1277"/>
  <ellipse class="fil0 str0" cx="533" cy="7910" rx="524" ry="1363"/>
  <ellipse class="fil0 str0" cx="14199" cy="7910" rx="524" ry="1363"/>
  <circle class="fil1 str0" cx="7366" cy="2468" r="380"/>
  <polygon class="fil2" points="7160,2569 7188,2569 7188,2471 7251,2471 7251,2447 7188,2447 7188,2386 7269,2386 7269,2362 7160,2362 "/>
  <path class="fil2" d="M7312 2627l28 0 0 -83c8,18 22,27 43,27 6,0 12,-1 18,-2 5,-2 11,-5 15,-9 5,-5 8,-9 11,-15 3,-5 5,-11 6,-17 0,-6 1,-12 1,-18l0 -31c0,-6 -1,-12 -1,-18 -1,-6 -3,-12 -6,-18 -3,-5 -6,-10 -11,-14 -4,-4 -10,-7 -15,-9 -6,-2 -12,-3 -18,-3 -21,0 -35,9 -43,27l0 -25 -28 0 0 208zm60 -81c-5,0 -9,0 -14,-2 -4,-2 -8,-4 -11,-8 -2,-4 -5,-8 -6,-13 -1,-4 -1,-9 -1,-13l0 -31c0,-5 0,-10 1,-14 1,-5 4,-9 6,-12 3,-4 7,-7 11,-8 5,-2 9,-3 14,-3 5,0 9,1 14,2 5,2 9,5 12,8 3,4 5,8 6,13 2,4 2,9 2,14l0 31c0,5 0,9 -2,14 -1,4 -3,9 -6,12 -3,4 -7,6 -12,8 -5,2 -9,2 -14,2z"/>
  <polygon class="fil2" points="7475,2569 7594,2569 7594,2544 7508,2544 7594,2444 7594,2419 7475,2419 7475,2444 7561,2444 7475,2544 "/>
  <circle class="fil1 str0" cx="1656" cy="4154" r="380"/>
  <polygon class="fil2" points="1528,4260 1556,4260 1556,4162 1620,4162 1620,4138 1556,4138 1556,4077 1637,4077 1637,4053 1528,4053 "/>
  <path class="fil2" d="M1742 4260l29 -51c6,-9 11,-18 16,-27 5,-9 8,-18 11,-28 3,-10 4,-20 4,-31 0,-7 0,-14 -2,-21 -1,-7 -3,-14 -6,-21 -4,-7 -8,-12 -14,-17 -5,-5 -11,-9 -18,-11 -7,-2 -15,-3 -22,-3 -7,0 -13,1 -20,3 -7,1 -13,4 -19,8 -5,4 -10,9 -13,15 -4,6 -6,13 -8,19 -1,7 -2,14 -2,21 0,8 1,17 3,25 3,8 7,16 13,22 5,7 12,11 21,14 8,3 16,4 25,4 7,0 13,0 18,-2 -3,5 -7,11 -11,18l-36 63 31 0zm-2 -104c-5,0 -10,-1 -15,-3 -5,-2 -8,-5 -11,-9 -3,-4 -6,-8 -7,-13 -1,-5 -1,-10 -1,-15 0,-5 0,-10 1,-15 1,-5 4,-10 7,-14 3,-4 7,-7 11,-9 5,-2 10,-3 15,-3l2 0 1 0c5,1 9,2 14,4 4,2 8,5 10,9 3,4 5,9 6,14 1,4 2,9 2,14 0,5 -1,10 -2,15 -1,5 -3,9 -7,14 -3,4 -7,7 -11,9 -5,1 -10,2 -15,2z"/>
  <circle class="fil1 str0" cx="13081" cy="4154" r="380"/>
  <polygon class="fil2" points="12871,4260 12899,4260 12899,4162 12962,4162 12962,4138 12899,4138 12899,4077 12980,4077 12980,4053 12871,4053 "/>
  <polygon class="fil2" points="13078,4260 13105,4260 13105,4053 13078,4053 13028,4088 13044,4109 13078,4084 "/>
  <path class="fil2" d="M13246 4262c6,0 13,0 19,-2 7,-1 13,-4 18,-8 6,-3 11,-8 14,-14 4,-5 7,-11 8,-18 2,-6 3,-13 3,-19l0 -89c0,-7 -1,-13 -3,-20 -1,-7 -4,-13 -8,-18 -3,-6 -8,-10 -14,-14 -5,-4 -11,-6 -18,-8 -6,-1 -13,-2 -19,-2 -7,0 -14,1 -20,2 -7,2 -13,4 -18,8 -6,4 -11,8 -14,14 -4,5 -7,11 -8,18 -2,7 -3,13 -3,20l0 89c0,6 1,13 3,19 1,7 4,13 8,18 3,6 8,11 14,14 5,4 11,7 18,8 6,2 13,2 20,2zm0 -25c-5,0 -10,0 -14,-2 -5,-2 -9,-4 -12,-8 -4,-3 -6,-7 -7,-12 -1,-5 -2,-10 -2,-14l0 -6 69 -47 0 53c0,4 -1,9 -2,14 -1,5 -3,9 -7,12 -3,4 -7,6 -12,8 -4,2 -9,2 -13,2zm-35 -72l0 -53c0,-5 1,-10 2,-14 1,-5 3,-9 7,-13 3,-3 7,-6 12,-8 4,-1 9,-2 14,-2 4,0 9,1 13,2 5,2 9,5 12,8 4,4 6,8 7,13 1,4 2,9 2,14l0 5 -69 48z"/>
  <circle class="fil1 str0" cx="1656" cy="11692" r="380"/>
  <path class="fil2" d="M1523 11798l28 0 0 -82 30 0c7,0 13,-1 20,-2 6,-2 12,-5 18,-8 5,-4 10,-9 13,-15 4,-5 6,-11 8,-18 1,-7 2,-13 2,-20 0,-6 -1,-13 -2,-19 -2,-7 -4,-13 -8,-19 -3,-5 -8,-10 -13,-14 -6,-4 -12,-6 -18,-8 -7,-1 -13,-2 -20,-2l-58 0 0 207zm28 -107l0 -75 30 0c5,0 10,1 14,2 5,2 8,5 11,9 3,3 5,8 7,12 1,5 1,10 1,14 0,5 0,10 -1,14 -2,5 -4,9 -7,13 -3,4 -6,7 -11,8 -4,2 -9,3 -14,3l-30 0z"/>
  <path class="fil2" d="M1742 11798l29 -50c6,-9 11,-18 16,-27 5,-9 8,-19 11,-29 3,-10 4,-20 4,-30 0,-8 0,-15 -2,-22 -1,-7 -3,-14 -6,-21 -4,-6 -8,-12 -14,-17 -5,-5 -11,-8 -18,-10 -7,-2 -15,-3 -22,-3 -7,0 -13,0 -20,2 -7,2 -13,4 -19,9 -5,4 -10,9 -13,15 -4,6 -6,12 -8,19 -1,7 -2,13 -2,20 0,9 1,17 3,25 3,9 7,16 13,23 5,6 12,11 21,13 8,3 16,5 25,5 7,0 13,-1 18,-3 -3,5 -7,11 -11,18l-36 63 31 0zm-2 -103c-5,0 -10,-1 -15,-3 -5,-2 -8,-5 -11,-9 -3,-5 -6,-9 -7,-14 -1,-5 -1,-10 -1,-15 0,-5 0,-10 1,-15 1,-5 4,-9 7,-13 3,-5 7,-8 11,-10 5,-2 10,-3 15,-3l2 0 1 0c5,1 9,2 14,4 4,2 8,6 10,10 3,4 5,8 6,13 1,5 2,9 2,14 0,5 -1,10 -2,15 -1,5 -3,10 -7,14 -3,4 -7,7 -11,9 -5,2 -10,3 -15,3z"/>
  <circle class="fil1 str0" cx="13094" cy="11692" r="380"/>
  <path class="fil2" d="M12879 11798l28 0 0 -82 30 0c7,0 14,-1 20,-2 7,-2 13,-5 18,-8 5,-4 10,-9 14,-15 3,-5 6,-11 7,-18 1,-7 2,-13 2,-20 0,-6 -1,-13 -2,-19 -1,-7 -4,-13 -7,-19 -4,-5 -9,-10 -14,-14 -5,-4 -11,-6 -18,-8 -6,-1 -13,-2 -20,-2l-58 0 0 207zm28 -107l0 -75 30 0c5,0 10,1 14,2 5,2 9,5 12,9 3,3 5,8 6,12 1,5 1,10 1,14 0,5 0,10 -1,14 -1,5 -3,9 -6,13 -3,4 -7,7 -12,8 -4,2 -9,3 -14,3l-30 0z"/>
  <polygon class="fil2" points="13091,11798 13119,11798 13119,11591 13091,11591 13041,11627 13058,11647 13091,11623 "/>
  <path class="fil2" d="M13259 11801c6,0 13,-1 20,-3 6,-1 12,-4 18,-7 5,-4 10,-9 14,-14 4,-6 6,-12 8,-18 1,-7 2,-13 2,-20l0 -89c0,-6 -1,-13 -2,-20 -2,-6 -4,-12 -8,-18 -4,-5 -9,-10 -14,-14 -6,-3 -12,-6 -18,-7 -7,-2 -14,-2 -20,-2 -7,0 -13,0 -20,2 -6,1 -12,4 -18,7 -6,4 -10,9 -14,14 -4,6 -6,12 -8,18 -1,7 -2,14 -2,20l0 89c0,7 1,13 2,20 2,6 4,12 8,18 4,5 8,10 14,14 6,3 12,6 18,7 7,2 13,3 20,3zm0 -25c-5,0 -9,-1 -14,-3 -5,-1 -9,-4 -12,-7 -3,-4 -5,-8 -7,-13 -1,-5 -2,-9 -2,-14l0 -6 69 -47 0 53c0,5 0,9 -1,14 -2,5 -4,9 -7,13 -4,3 -8,6 -12,7 -5,2 -9,3 -14,3zm-35 -73l0 -53c0,-5 1,-9 2,-14 2,-5 4,-9 7,-13 3,-3 7,-6 12,-7 5,-2 9,-3 14,-3 5,0 9,1 14,3 4,1 8,4 12,7 3,4 5,8 7,13 1,5 1,9 1,14l0 6 -69 47z"/>
  <circle class="fil1 str0" cx="7366" cy="1076" r="380"/>
  <path class="fil2" d="M7231 1178l27 0 0 -83c0,-14 0,-28 0,-42 -1,-14 -1,-28 -2,-41l58 166 36 0 0 -207 -27 0 0 82c0,14 0,28 0,42 1,14 1,28 2,42l-58 -166 -36 0 0 207z"/>
  <polygon class="fil2" points="7393,1178 7513,1178 7513,1153 7427,1153 7513,1053 7513,1028 7393,1028 7393,1053 7480,1053 7393,1153 "/>
  <circle class="fil1 str0" cx="7366" cy="14743" r="380"/>
  <polygon class="fil2" points="7234,14844 7347,14844 7347,14819 7304,14819 7304,14662 7347,14662 7347,14637 7234,14637 7234,14662 7277,14662 7277,14819 7234,14819 "/>
  <polygon class="fil2" points="7393,14844 7513,14844 7513,14819 7427,14819 7513,14719 7513,14695 7393,14695 7393,14719 7480,14719 7393,14819 "/>
  <circle class="fil1 str0" cx="532" cy="7910" r="380"/>
  <polygon class="fil2" points="440,8016 467,8016 467,7833 517,7833 517,7808 390,7808 390,7833 440,7833 "/>
  <path class="fil2" d="M618 8016l30 -51c5,-9 10,-18 15,-27 5,-9 8,-18 11,-28 3,-10 4,-21 4,-31 0,-7 0,-14 -2,-21 -1,-8 -3,-14 -6,-21 -4,-7 -8,-12 -13,-17 -6,-5 -12,-9 -19,-11 -7,-2 -14,-3 -22,-3 -7,0 -13,1 -20,3 -7,1 -13,4 -19,8 -5,4 -10,9 -13,15 -4,6 -6,13 -8,19 -1,7 -2,14 -2,21 0,8 1,17 4,25 2,8 6,16 12,22 5,7 12,11 21,14 8,3 16,4 25,4 7,0 13,-1 19,-2 -4,5 -7,11 -11,18l-37 63 31 0zm-2 -104c-5,0 -10,-1 -15,-3 -4,-2 -8,-5 -11,-9 -3,-4 -5,-8 -7,-13 -1,-5 -1,-10 -1,-15 0,-5 0,-10 1,-15 2,-5 4,-10 7,-14 3,-4 7,-7 12,-9 4,-2 9,-3 14,-3l2 0 1 0c5,0 9,2 14,4 4,2 8,5 10,9 3,4 5,9 6,13 1,5 2,10 2,15 0,5 -1,10 -2,15 -1,5 -3,9 -6,13 -3,5 -7,8 -12,9 -5,2 -10,3 -15,3z"/>
  <circle class="fil1 str0" cx="14197" cy="7910" r="380"/>
  <polygon class="fil2" points="14023,8016 14051,8016 14051,7833 14100,7833 14100,7808 13973,7808 13973,7833 14023,7833 "/>
  <polygon class="fil2" points="14194,8016 14222,8016 14222,7808 14194,7808 14144,7844 14161,7865 14194,7840 "/>
  <path class="fil2" d="M14362 8018c6,0 13,-1 20,-2 6,-1 12,-4 18,-8 5,-4 10,-8 14,-14 3,-5 6,-11 8,-18 1,-6 2,-13 2,-19l0 -89c0,-7 -1,-13 -2,-20 -2,-7 -5,-13 -8,-18 -4,-6 -9,-10 -14,-14 -6,-4 -12,-6 -18,-8 -7,-1 -14,-2 -20,-2 -7,0 -13,1 -20,2 -7,2 -13,4 -18,8 -6,4 -10,8 -14,14 -4,5 -7,11 -8,18 -2,7 -2,13 -2,20l0 89c0,6 0,13 2,19 1,7 4,13 8,18 4,6 8,10 14,14 5,4 11,7 18,8 7,1 13,2 20,2zm0 -25c-5,0 -10,-1 -14,-2 -5,-2 -9,-4 -12,-8 -3,-3 -6,-8 -7,-12 -1,-5 -2,-10 -2,-14l0 -6 69 -47 0 53c0,4 0,9 -2,14 -1,4 -3,9 -6,12 -4,4 -8,6 -12,8 -5,1 -9,2 -14,2zm-35 -72l0 -53c0,-5 1,-10 2,-14 1,-5 4,-9 7,-13 3,-4 7,-6 12,-8 4,-1 9,-2 14,-2 5,0 9,1 14,2 4,2 8,4 12,8 3,4 5,8 6,13 2,4 2,9 2,14l0 5 -69 48z"/>
  <path class="fil2" d="M3887 3648l29 0 13 -50 61 0 13 50 29 0 -42 -156 -15 -52 -31 0 -57 208zm49 -75l6 -22c9,-34 15,-63 17,-85 3,22 9,51 18,85l6 22 -47 0z"/>
  <polygon class="fil2" points="4073,3648 4101,3648 4101,3550 4164,3550 4164,3525 4101,3525 4101,3465 4182,3465 4182,3440 4073,3440 "/>
  <polygon class="fil2" points="4243,3648 4273,3648 4344,3465 4344,3440 4225,3440 4225,3465 4315,3465 "/>
</svg>